<svg width="91" height="50" viewBox="0 0 91 50" fill="none" xmlns="http://www.w3.org/2000/svg">
<path d="M39.434 49.6467C38.7072 49.2323 38.0873 48.1301 38.0873 47.2522C38.0873 46.3095 40.5673 40.1918 41.2331 39.4922C41.6939 39.008 42.0733 38.8577 42.8351 38.8577C44.161 38.8577 45.0108 39.4776 45.359 40.6988C45.6273 41.6397 45.5788 41.8394 44.242 45.3042C43.067 48.3497 42.7209 49.0139 42.0672 49.4786C41.173 50.1141 40.3463 50.1669 39.434 49.6467ZM58.2416 49.1314C58.0803 49.063 56.3241 46.8684 54.339 44.2545C52.3538 41.6406 50.5069 39.3767 50.2349 39.2237C49.8449 39.0044 49.62 39.0284 49.1717 39.337C48.2346 39.9823 48.4352 40.8369 50.0081 42.9013C50.7765 43.9097 51.4683 45.0883 51.5454 45.5203C51.9447 47.7565 49.2471 49.5254 47.5127 48.1647C46.3846 47.2796 46.3614 47.063 47.1696 44.9561C47.5801 43.8861 47.9791 42.6013 48.0564 42.1011C48.5065 39.1863 45.8519 36.0412 42.9363 36.035C42.5829 36.0345 42.2937 35.9915 42.2937 35.9401C42.2937 35.8886 42.5566 35.1126 42.8779 34.2155C43.1992 33.3184 43.4621 32.086 43.4621 31.4768C43.4621 30.1277 42.6118 28.2548 41.5886 27.35C40.8418 26.6897 38.6443 25.8788 37.9653 26.013C37.6678 26.0717 37.57 25.8479 37.515 24.983C37.2938 21.4989 34.191 19.0986 31.0067 19.9482C29.4979 20.3508 28.4069 21.3219 27.7004 22.8912L27.0929 24.2408L26.1277 23.5061C24.2136 22.049 22.1259 21.9732 20.0942 23.2869C18.834 24.1018 18.492 24.7179 16.5631 29.6488C15.9026 31.3371 15.3226 32.7645 15.2742 32.8208C15.2258 32.877 15.1861 27.7219 15.1861 21.3649V9.80668L16.413 9.50327C19.5405 8.72979 24.1039 6.51553 33.0631 1.42422C33.8342 0.985987 34.2549 0.806771 33.9978 1.02597C33.7408 1.24516 31.6172 3.41713 29.2788 5.85259C26.2792 8.97665 24.9465 10.5375 24.7532 11.1529C24.3861 12.3219 24.5926 13.6988 25.3344 15.029C27.7886 19.4299 33.8222 18.9006 41.707 13.593C43.4682 12.4075 43.6612 12.3362 45.1098 12.3362C46.5658 12.3362 46.7418 12.4023 48.5007 13.6099C50.8205 15.2026 53.8318 16.7392 55.9643 17.4183C57.3197 17.85 58.1482 18.3777 60.7975 20.4967C63.9502 23.0185 66.0584 24.8914 67.3673 26.3336C69.0045 28.1374 74.5642 35.8419 74.6844 36.4732C74.8997 37.6043 74.2313 38.9369 73.2277 39.3775C72.0073 39.9134 71.01 39.6501 70.0651 38.5428C69.6357 38.0396 67.5052 35.2774 65.3306 32.4047C61.2103 26.9617 60.6931 26.4857 59.8107 27.3249C59.0525 28.0459 59.2834 28.9316 60.6724 30.6311C60.9484 30.9688 63.1822 33.8972 65.6364 37.1387C70.4159 43.4515 70.7058 44.0042 70.0251 45.5043C69.3619 46.9658 67.3121 47.5225 66.1918 46.5455C65.9919 46.3711 63.4162 43.0506 60.468 39.1665C54.8618 31.7807 54.5809 31.5059 53.6441 32.4904C52.8688 33.3051 53.2128 33.9383 57.5026 39.5929C59.8267 42.6564 61.8339 45.4814 61.963 45.8707C62.2709 46.7988 61.8564 48.1385 61.0569 48.7994C60.4859 49.2714 58.9888 49.448 58.2416 49.1314ZM31.6376 46.0037C31.0594 45.3962 30.8431 44.9511 30.8431 44.3694C30.8431 43.6446 32.3712 39.4207 35.2154 32.2837C35.7958 30.827 36.4911 29.4755 36.763 29.2754C37.3308 28.8575 39.0741 28.7927 39.7361 29.165C40.3143 29.4901 40.8916 30.6656 40.8916 31.5177C40.8916 32.0459 37.0769 42.3324 35.7267 45.4451C35.3559 46.3 34.4121 46.8387 33.285 46.8387C32.6266 46.8387 32.2509 46.6483 31.6376 46.0037ZM24.9454 43.5074C24.2144 43.0906 23.5988 41.9896 23.5988 41.0988C23.5988 40.7648 24.5305 38.0795 25.6693 35.1315C26.808 32.1836 27.8214 29.4953 27.9213 29.1577C28.0211 28.82 28.4039 27.8503 28.7719 27.0028C29.1399 26.1553 29.441 25.4081 29.441 25.3425C29.441 24.7283 30.5334 22.9995 31.1055 22.7084C32.5653 21.9654 34.5579 22.9586 34.9566 24.6278C35.1061 25.2539 34.7442 26.3422 32.3479 32.4729C31.6616 34.2287 30.4818 37.2676 29.7263 39.226C28.5755 42.2087 28.2265 42.8765 27.5769 43.3393C26.6847 43.9749 25.8579 44.0277 24.9454 43.5074ZM17.1256 39.8398C16.3929 39.0699 16.3185 38.8712 16.4126 37.9366C16.5534 36.5395 20.4601 26.4914 21.1555 25.7379C21.5904 25.2667 21.9559 25.1384 22.9046 25.124C23.9742 25.1077 24.1777 25.1925 24.7861 25.9078C25.787 27.0844 25.6964 28.0183 24.2176 31.7621C23.5298 33.5037 22.5671 35.9553 22.0784 37.2101C21.0296 39.9033 20.3007 40.6994 18.8838 40.6994C18.1208 40.6994 17.7894 40.5374 17.1256 39.8398ZM0.814441 37.9575C0.557386 37.8004 0.269811 37.5519 0.175383 37.4052C0.0809559 37.2586 0.00208688 30.3913 0.000118588 22.1445C-0.00290304 9.58581 0.0503628 7.07287 0.32788 6.67362C0.636409 6.22976 1.02775 6.19185 6.01257 6.12302C11.042 6.05357 11.4002 6.07826 11.9323 6.53109L12.4987 7.01308V22.1285C12.4987 36.3054 12.4728 37.2712 12.0819 37.6825C11.7106 38.0731 11.0985 38.1276 6.47345 38.182C2.85337 38.2246 1.14033 38.1567 0.814441 37.9575ZM78.57 37.9892C78.2789 37.8663 77.9378 37.4811 77.8119 37.1331C77.6693 36.7391 77.6045 30.9391 77.64 21.7567L77.6971 7.0129L78.2487 6.54352C78.7552 6.11263 79.2295 6.07414 84.0325 6.07414C88.9529 6.07414 89.2923 6.10336 89.7319 6.56528C90.1892 7.04581 90.1992 7.38125 90.1957 22.0975C90.1936 30.3702 90.1148 37.2603 90.0204 37.4089C89.5622 38.13 88.7241 38.2434 83.9635 38.2282C81.2881 38.2196 78.861 38.1121 78.57 37.9892ZM73.4449 29.9506C72.6485 28.9067 71.2775 27.1133 70.3982 25.9653C68.7448 23.8065 66.1371 21.3773 61.392 17.5756C59.0802 15.7234 58.3781 15.2948 56.9964 14.8925C55.0755 14.3331 51.7329 12.6271 49.4501 11.0409C46.3234 8.86834 44.0512 8.86368 40.8258 11.0232C36.4861 13.9288 32.0935 15.6217 29.8657 15.2473C28.6381 15.0411 27.3937 13.8773 27.1865 12.7419C27.0403 11.9405 27.1419 11.81 31.2182 7.56301C34.071 4.59081 35.7492 3.03242 36.4988 2.65939C37.9988 1.91298 51.0534 -0.144307 53.3232 0.00802712C54.753 0.10399 55.1876 0.28413 58.3474 2.09071C65.9379 6.43041 70.8127 8.77172 73.7828 9.50415L75.0097 9.80668V20.8328C75.0097 26.8972 74.9834 31.8566 74.9513 31.8537C74.9191 31.8507 74.2413 30.9944 73.4449 29.9506Z" fill="#EB7B15"/>
</svg>
