<svg width="44" height="50" viewBox="0 0 44 50" fill="none" xmlns="http://www.w3.org/2000/svg">
<path d="M11.672 48.896C11.427 48.0559 10.9804 46.333 10.6796 45.0673C10.1823 42.9755 9.76816 42.7661 6.12734 42.7661C3.92447 42.7661 2.12212 42.4634 2.12212 42.0934C2.12212 41.7235 3.52991 40.1434 5.25054 38.5821C7.19423 36.8184 8.38413 36.2016 8.39263 36.9535C8.42307 39.6459 9.65746 40.2524 13.2283 39.3293C15.8948 38.64 16.9199 38.691 17.8359 39.5585C18.8125 40.4832 18.4963 41.4405 15.9875 45.154C12.2093 50.7465 12.2112 50.7448 11.672 48.896ZM27.8262 45.6406C23.4381 38.9238 24.5081 37.6523 32.6503 39.908C33.6532 40.1858 34.3757 39.6248 34.8956 38.1646L35.6622 36.0115L39.1848 39.3888L42.7074 42.7661H38.0738C33.7429 42.7661 33.4058 42.9164 32.9126 45.0673C31.5868 50.8488 31.2533 50.8864 27.8262 45.6406ZM19.2051 38.2635C17.5251 36.5893 16.7213 36.3737 14.1689 36.9127C11.2955 37.5194 11.0787 37.4037 10.1501 34.7696C9.43011 32.7272 8.3805 31.7417 6.21128 31.0715C3.46013 30.2214 3.29843 29.9702 3.89127 27.4662C4.41368 25.2598 4.12047 24.36 2.26426 22.4735L0 20.1723L2.26426 17.8711C4.12047 15.9845 4.41368 15.0848 3.89127 12.8783C3.29843 10.3744 3.46013 10.1231 6.21128 9.2731C8.37545 8.60443 9.43028 7.61689 10.1445 5.59079C11.0504 3.02105 11.327 2.86372 13.9954 3.40041C16.2799 3.85987 17.4009 3.57004 19.4534 1.98932L22.0364 0L24.3695 2.00769C26.2601 3.63471 27.2476 3.90227 29.5774 3.41879C32.252 2.86377 32.5204 3.01516 33.4283 5.59079C34.1426 7.61689 35.1974 8.60443 37.3616 9.2731C40.1127 10.1231 40.2744 10.3744 39.6816 12.8783C39.1652 15.0595 39.4509 15.984 41.1888 17.754L43.3333 19.9382L41.2084 22.3565C39.52 24.278 39.2104 25.3276 39.7012 27.4662C40.2745 29.9644 40.1064 30.2234 37.3616 31.0715C35.1924 31.7417 34.1427 32.7272 33.4228 34.7696C32.4942 37.4037 32.2773 37.5194 29.404 36.9127C26.8515 36.3737 26.0477 36.5893 24.3677 38.2635C23.2682 39.3592 22.1066 40.2557 21.7864 40.2557C21.4662 40.2557 20.3046 39.3592 19.2051 38.2635Z" fill="#EB7B15"/>
</svg>
