<svg width="51" height="50" viewBox="0 0 51 50" fill="none" xmlns="http://www.w3.org/2000/svg">
<path d="M12.5811 37.6316L0 25.2632H4.14762H8.29524V12.6316V0H25.4386H42.5819V12.6316V25.2632H46.7296H50.8772L38.2961 37.6316C31.3765 44.4342 25.5906 50 25.4386 50C25.2866 50 19.5007 44.4342 12.5811 37.6316ZM26.5101 30.2631C26.5101 29.4079 26.8101 28.9474 27.3672 28.9474C27.8387 28.9474 29.0749 28.1118 30.1144 27.0906C31.8131 25.4218 31.9749 25.018 31.7134 23.1023C31.3605 20.5178 30.2465 19.2271 26.9514 17.5855C24.4054 16.3171 23.5367 15.0512 24.1444 13.4952C24.6941 12.088 26.9682 12.4076 27.3615 13.9474C27.648 15.0689 28.0055 15.2632 29.7825 15.2632C31.4117 15.2632 31.8669 15.0618 31.8653 14.3421C31.8623 12.7757 29.8275 10.0455 28.4017 9.6939C27.342 9.4326 27.0458 9.02706 27.0458 7.83767C27.0458 6.66667 26.7987 6.3158 25.9743 6.3158C25.1901 6.3158 24.9029 6.66666 24.9029 7.6245C24.9029 8.60347 24.4642 9.1134 23.1618 9.64826C20.6925 10.6623 19.8134 11.9359 19.8134 14.4993C19.8134 17.1794 20.9035 18.5366 24.492 20.3244C27.4189 21.7826 28.4318 23.877 26.7829 25.0615C25.6134 25.9016 23.8394 25.1437 23.437 23.632C23.065 22.2343 19.0088 22.1615 19.0118 23.5527C19.0149 25.2757 21.0447 27.7883 22.9907 28.4796C24.4281 28.9902 24.9029 29.4593 24.9029 30.3689C24.9029 31.0936 25.2252 31.579 25.7065 31.579C26.2065 31.579 26.5101 31.0819 26.5101 30.2631Z" fill="#EB7B15"/>
</svg>
