<svg width="51" height="48" viewBox="0 0 51 48" fill="none" xmlns="http://www.w3.org/2000/svg">
<path d="M0.422838 46.637C0.190272 46.4105 0 38.6274 0 29.3412V12.4573H19.0285H38.0569V29.753V47.0488H19.4513C9.21822 47.0488 0.655405 46.8634 0.422838 46.637ZM27.5913 18.6344C27.5913 17.8781 26.3187 17.6754 20.6684 17.5315C13.9625 17.3606 12.0664 17.7766 12.9812 19.218C13.2736 19.6788 15.7828 19.8512 20.5056 19.7351C26.3016 19.5926 27.5913 19.3923 27.5913 18.6344ZM40.594 28.7811V11.5018L45.6683 6.58915L50.7426 1.67652V17.7994V33.9223L46.2535 39.4046C43.7845 42.4198 41.5011 45.1509 41.1793 45.4736C40.8214 45.8324 40.594 39.3465 40.594 28.7811ZM1.32141 9.735C1.46669 9.59667 4.41204 7.37294 7.86645 4.79338L14.1472 0.103271H22.7494C29.915 0.103271 31.1965 0.239324 30.4229 0.91744C29.9121 1.36523 27.3211 3.58897 24.6653 5.85907L19.8365 9.98652H10.4468C5.28247 9.98652 1.17606 9.87342 1.32141 9.735ZM26.0994 7.95579C27.372 6.86441 29.9717 4.6511 31.8764 3.03736L35.3394 0.103271H42.2333H49.1271L44.0826 5.0449L39.0381 9.98652L31.4118 9.96341L23.7856 9.9403L26.0994 7.95579Z" fill="#EB7B15"/>
</svg>
