<svg width="51" height="40" viewBox="0 0 51 40" fill="none" xmlns="http://www.w3.org/2000/svg">
<path d="M10.962 39.718C9.70932 39.2241 7.82161 37.3565 7.34591 36.1403C7.02125 35.3103 6.48735 35.0056 5.35748 35.0056C4.49375 35.0056 3.36268 34.561 2.79158 33.997C1.86386 33.0808 1.77027 32.316 1.77027 25.6509C1.77027 19.6808 1.60695 18.0126 0.893842 16.6994C0.330814 15.6626 0.0112412 13.9133 0.000196649 11.8075C-0.0339648 5.31285 4.38566 0.948203 10.962 0.981883C14.3859 0.999466 16.3372 1.70445 18.4728 3.69576C19.4535 4.61018 20.2353 4.74717 24.473 4.74717C31.8024 4.74717 31.3881 3.84091 31.3881 19.8764C31.3881 35.9664 31.8429 35.0056 24.2264 35.0056C19.3895 35.0056 19.0827 35.0683 18.6633 36.1403C17.6156 38.8191 13.5144 40.7243 10.962 39.718ZM15.8364 36.7936C18.3694 34.2922 16.5746 29.9626 13.0046 29.9626C10.9053 29.9626 8.91941 31.9238 8.91941 33.997C8.91941 36.0703 10.9053 38.0315 13.0046 38.0315C13.9996 38.0315 15.0463 37.5739 15.8364 36.7936ZM15.0626 19.7503C21.7638 16.4071 21.7638 7.2079 15.0626 3.86464C12.1803 2.42666 9.74373 2.42666 6.86146 3.86464C0.160297 7.2079 0.160297 16.4071 6.86146 19.7503C8.11236 20.3744 9.9576 20.885 10.962 20.885C11.9664 20.885 13.8117 20.3744 15.0626 19.7503ZM7.10647 15.2967C6.91879 14.9968 7.4152 14.0814 8.2096 13.2625C9.46732 11.9661 9.67914 11.3034 9.84903 8.13435C10.1901 1.77228 11.7045 2.13823 12.1295 8.68541C12.3861 12.6372 12.3388 12.8995 11.2988 13.2924C10.6923 13.5215 9.75829 14.1889 9.22325 14.7755C8.13434 15.9693 7.60843 16.0988 7.10647 15.2967ZM36.5916 39.0272C35.6619 38.4674 34.5739 37.2356 34.1737 36.2898C33.7736 35.3441 33.2129 34.4279 32.9278 34.2539C32.1426 33.7746 32.232 11.1758 33.0222 10.3954C33.9095 9.51915 40.8004 9.61617 42.59 10.5301C44.1451 11.3243 49.4304 17.9158 50.2786 20.1189C50.5615 20.8537 50.7929 24.05 50.7929 27.2217C50.7929 32.316 50.6738 33.106 49.7716 33.997C49.2099 34.5517 48.1035 35.0056 47.3129 35.0056C46.1687 35.0056 45.699 35.3713 45.0098 36.7986C43.5382 39.8461 39.6579 40.8734 36.5916 39.0272ZM42.2983 36.9862C43.3361 36.18 43.6438 35.4965 43.6438 33.997C43.6438 30.444 39.9528 28.8085 37.204 31.1435C36.2107 31.9874 35.8138 32.8019 35.8138 33.997C35.8138 35.1921 36.2107 36.0067 37.204 36.8505C38.9205 38.3086 40.5405 38.3517 42.2983 36.9862ZM48.7503 21.964C48.7503 21.448 48.1487 20.1502 47.4133 19.08C44.367 14.6468 44.6964 14.8664 41.065 14.8492C39.1234 14.8406 37.4632 15.0872 37.1074 15.4385C36.7704 15.7713 36.4947 17.3145 36.4947 18.8678C36.4947 20.4211 36.7704 21.9642 37.1074 22.2971C37.5084 22.693 39.6267 22.9023 43.2353 22.9023C48.272 22.9023 48.7503 22.8209 48.7503 21.964Z" fill="#EB7B15"/>
</svg>
