<svg width="160" height="125" viewBox="0 0 160 125" fill="none" xmlns="http://www.w3.org/2000/svg">
<path fill-rule="evenodd" clip-rule="evenodd" d="M88.7018 2.99253C89.3809 1.7712 90.3365 0.904718 91.6047 0.359915C92.7077 -0.11365 111.153 -0.122835 112.297 0.349835C113.595 0.885677 114.56 1.74858 115.252 2.99253C115.849 4.0669 115.918 4.42353 116.04 7.08168C116.188 10.3185 116.485 11.1921 117.88 12.4898C119.49 13.9874 122.153 14.7875 124.099 14.3583C125.457 14.0588 125.863 13.8048 128.129 11.8348C130.222 10.0151 131.362 9.44503 132.917 9.44011C133.474 9.43828 133.902 9.43416 134.314 9.51157C135.728 9.77704 136.962 11.0014 142.619 16.5662C146.335 20.2206 149.583 23.5409 149.838 23.9444C150.414 24.8556 150.623 26.9193 150.271 28.2076C150.07 28.9392 149.514 29.6827 147.967 31.2878C146.845 32.4515 145.78 33.753 145.599 34.1802C145.419 34.6074 145.273 35.6408 145.276 36.4764C145.286 39.2208 146.781 41.8397 148.947 42.9063C149.975 43.4128 150.403 43.484 152.414 43.484C153.831 43.484 155.163 43.6175 155.897 43.8326C157.389 44.2705 158.775 45.482 159.471 46.9562C159.999 48.0745 160 48.0924 160 57.5969V67.1175L159.466 68.2375C158.349 70.5763 156.891 71.2555 152.539 71.4622C149.89 71.5884 149.34 71.6802 148.626 72.1159C146.647 73.3247 145.468 75.4147 145.318 77.9795C145.191 80.1379 145.6 81.0126 147.815 83.3249C150.326 85.9456 150.933 87.7637 150.114 90.2071C149.786 91.1835 148.955 92.0908 142.917 98.0599C136.613 104.293 135.997 104.839 134.87 105.201C133.451 105.656 131.69 105.561 130.506 104.966C130.087 104.756 128.57 103.453 127.136 102.071C124.324 99.3616 123.607 98.9595 121.572 98.9492C120.1 98.9418 118.118 99.874 117.27 100.972C116.27 102.268 116.031 103.463 116.025 107.196C116.02 110.975 115.809 111.769 114.454 113.108C114.113 113.444 113.867 113.705 113.579 113.908C112.544 114.64 110.976 114.617 102.543 114.676C95.5465 114.724 92.5241 114.668 91.8309 114.478C90.7373 114.178 89.0046 112.776 88.4302 111.727C88.1246 111.169 88.019 110.174 87.9161 106.88C87.8016 103.222 87.7291 102.627 87.298 101.812C86.086 99.5191 83.2952 98.3444 80.7402 99.0514C79.8575 99.2955 79.1886 99.8023 76.9765 101.903C74.0339 104.697 72.9506 105.333 71.0765 105.37C68.7298 105.416 68.6317 105.343 61.3213 98.1732C54.0812 91.0722 53.476 90.3119 53.4715 88.3128C53.4674 86.5079 53.8999 85.6596 55.9261 83.4969C58.3655 80.8935 58.7697 80.04 58.6366 77.7718C58.5553 76.382 58.3961 75.8059 57.7757 74.6556C56.3701 72.0494 54.7655 71.2617 50.8618 71.2617C48.0486 71.2617 46.7926 70.8829 45.5577 69.6627C45.2184 69.3274 44.9496 69.0638 44.7373 68.7606C43.9235 67.5987 43.9399 65.8554 43.9976 57.2609C44.0541 48.8673 44.0455 47.188 44.8333 46.0699C45.0526 45.7586 45.3337 45.4907 45.6951 45.1336C47.0327 43.8117 47.6236 43.6265 50.9758 43.4791C54.4464 43.3265 55.2955 43.036 56.6718 41.5304C57.8954 40.1919 58.5131 38.7257 58.6332 36.8738C58.786 34.523 58.4786 33.8346 56.2838 31.611C54.1234 29.4222 53.4815 28.2421 53.4742 26.4468C53.4654 24.2396 53.9375 23.6285 61.1123 16.5584C68.1965 9.57787 68.6725 9.22192 70.9228 9.21699C72.6684 9.21318 74.1162 9.95534 75.9096 11.7732C76.7199 12.5947 77.6921 13.4576 78.0702 13.6905C80.9399 15.4598 85.6363 14.0355 87.3048 10.8899C87.6881 10.1675 87.8059 9.4298 87.9136 7.08168C88.0356 4.42353 88.1042 4.0669 88.7018 2.99253ZM122.957 49.3368C120.336 42.747 114.285 37.6242 107.182 35.982C105.56 35.6072 100.689 35.3368 99.4833 35.5546C95.3017 36.3097 92.6918 37.2792 89.8201 39.1439C85.129 42.1903 81.57 47.2844 80.293 52.7806C79.7188 55.2519 79.7202 59.9613 80.2957 62.3888C81.99 69.5346 87.1321 75.4994 93.8454 78.1069C102.408 81.4327 112.424 79.2263 118.549 72.6656C124.412 66.3856 126.127 57.3088 122.957 49.3368Z" fill="#509121"/>
<path fill-rule="evenodd" clip-rule="evenodd" d="M19.3986 76.5661C19.6932 76.0366 20.1076 75.6608 20.6577 75.4246C21.136 75.2193 29.1358 75.2153 29.6322 75.4202C30.1951 75.6526 30.6135 76.0267 30.9134 76.5661C31.1726 77.032 31.2023 77.1866 31.2552 78.3392C31.3196 79.7427 31.4485 80.1215 32.0535 80.6842C32.7515 81.3335 33.9065 81.6805 34.7505 81.4944C35.3395 81.3645 35.5155 81.2544 36.4984 80.4002C37.4061 79.6112 37.9006 79.364 38.575 79.3618C38.8166 79.361 39.0021 79.3593 39.1809 79.3928C39.794 79.5079 40.3291 80.0389 42.7828 82.4518C44.3943 84.0363 45.8031 85.476 45.9136 85.651C46.1633 86.0461 46.2542 86.9409 46.1013 87.4995C46.0144 87.8167 45.7732 88.1391 45.1022 88.8351C44.6158 89.3397 44.1536 89.9041 44.0753 90.0893C43.9969 90.2745 43.9339 90.7226 43.9352 91.0849C43.9394 92.2749 44.5878 93.4105 45.5272 93.8729C45.9732 94.0926 46.1585 94.1234 47.031 94.1234C47.6453 94.1234 48.2232 94.1813 48.5413 94.2746C49.1883 94.4645 49.7896 94.9898 50.0915 95.629C50.3206 96.1139 50.3209 96.1217 50.3209 100.243V104.371L50.0891 104.857C49.6051 105.871 48.9724 106.165 47.0852 106.255C45.936 106.31 45.6974 106.349 45.388 106.538C44.5297 107.063 44.0183 107.969 43.9532 109.081C43.8983 110.017 44.0756 110.396 45.0363 111.399C46.1253 112.535 46.3886 113.323 46.0334 114.383C45.8913 114.806 45.5307 115.2 42.9121 117.788C40.1778 120.49 39.9108 120.727 39.4218 120.884C38.8065 121.081 38.0428 121.041 37.5293 120.783C37.3475 120.691 36.6898 120.126 36.0678 119.527C34.8482 118.352 34.5373 118.178 33.6545 118.173C33.0161 118.17 32.1565 118.574 31.789 119.05C31.355 119.613 31.2513 120.131 31.2489 121.749C31.2465 123.388 31.1551 123.732 30.5674 124.313C30.4197 124.459 30.3128 124.572 30.1882 124.66C29.739 124.977 29.0592 124.967 25.4018 124.993C22.3672 125.014 21.0564 124.989 20.7558 124.907C20.2814 124.777 19.53 124.169 19.2809 123.714C19.1483 123.472 19.1025 123.04 19.0579 121.612C19.0083 120.026 18.9768 119.768 18.7898 119.415C18.2642 118.421 17.0538 117.911 15.9457 118.218C15.5629 118.324 15.2728 118.543 14.3134 119.454C13.0371 120.666 12.5673 120.942 11.7545 120.958C10.7367 120.977 10.6942 120.946 7.52364 117.837C4.38359 114.758 4.12111 114.428 4.11915 113.561C4.11738 112.779 4.30495 112.411 5.18372 111.473C6.24171 110.344 6.41699 109.974 6.35929 108.991C6.32399 108.388 6.25498 108.138 5.98591 107.64C5.37631 106.51 4.68039 106.168 2.98733 106.168C1.76723 106.168 1.22251 106.004 0.686927 105.475C0.539735 105.329 0.423135 105.215 0.331048 105.083C-0.0218478 104.58 -0.014752 103.824 0.0102743 100.097C0.034804 96.4578 0.0310645 95.7296 0.372701 95.2447C0.467832 95.1097 0.589743 94.9936 0.746501 94.8387C1.32662 94.2655 1.5829 94.1852 3.03678 94.1213C4.54197 94.0552 4.91023 93.9292 5.50715 93.2763C6.03782 92.696 6.30571 92.0602 6.35781 91.2572C6.42407 90.2379 6.29076 89.9394 5.33885 88.9753C4.40188 88.0262 4.12347 87.5145 4.12033 86.736C4.11649 85.779 4.32127 85.514 7.433 82.4484C10.5054 79.4216 10.7119 79.2672 11.6879 79.2651C12.4449 79.2634 13.0728 79.5852 13.8506 80.3735C14.2021 80.7297 14.6237 81.1038 14.7877 81.2048C16.0323 81.972 18.0691 81.3544 18.7928 79.9905C18.959 79.6772 19.0101 79.3574 19.0568 78.3392C19.1097 77.1866 19.1395 77.032 19.3986 76.5661ZM34.2551 96.6613C33.1185 93.8039 30.4941 91.5826 27.4134 90.8705C26.7103 90.708 24.5977 90.5908 24.0746 90.6852C22.2611 91.0126 21.1291 91.433 19.8837 92.2416C17.8491 93.5625 16.3056 95.7713 15.7517 98.1545C15.5027 99.2261 15.5033 101.268 15.7529 102.321C16.4877 105.419 18.7179 108.006 21.6294 109.136C25.343 110.578 29.687 109.622 32.3435 106.777C34.8862 104.054 35.63 100.118 34.2551 96.6613Z" fill="#509121"/>
</svg>
