<svg width="130" height="130" viewBox="0 0 130 130" fill="none" xmlns="http://www.w3.org/2000/svg">
<path d="M26.7287 0.405556C23.995 1.13543 21.5044 3.29464 20.2287 6.03168C19.5908 7.43061 19.5908 7.61308 19.5908 29.3269V51.2232L20.3805 52.9262C21.3829 55.0246 23.0838 56.7885 25.0885 57.792L26.5768 58.5219L53.7918 58.7044L56.8899 61.8368C61.3549 66.3681 62.0534 66.3681 66.6703 61.7151L69.7077 58.674H82.8292C95.4647 58.674 96.0114 58.6436 97.7123 58.0353C98.988 57.5487 99.9296 56.9101 101.175 55.6632C104.03 52.7437 103.878 54.1731 103.878 29.5093C103.878 16.402 103.757 7.61308 103.574 6.97443C103.089 5.24098 101.6 3.14259 100.021 1.98695C97.1352 -0.11144 98.8665 -0.0202053 61.6282 0.0102061C36.1446 0.0102061 27.7614 0.101441 26.7287 0.405556ZM76.9063 17.2839C78.7591 18.9262 78.6983 19.0782 70.9226 30.817C63.5418 41.9172 62.9647 42.5559 61.1726 42.1301C60.5955 41.9781 58.3782 40.0013 54.6726 36.3215C49.2053 30.8475 49.0534 30.6954 49.0534 29.4485C49.0534 27.8063 50.4506 26.4378 52.1516 26.4378C53.1539 26.4378 53.6095 26.7723 57.2544 30.3913L61.2637 34.3752L66.8221 25.9512C69.9203 21.3287 72.745 17.2839 73.1703 16.9798C74.2637 16.1283 75.7521 16.2499 76.9063 17.2839ZM39.4553 26.3161C41.46 26.7419 42.6749 28.9619 41.7637 30.665C40.974 32.216 39.9717 32.5201 35.8408 32.5201C33.1376 32.5201 31.9226 32.3984 31.2847 32.0639C30.1305 31.4557 29.3712 29.9959 29.6142 28.8707C29.8268 27.8367 31.0721 26.529 31.9833 26.3466C33.0768 26.1337 38.4226 26.1337 39.4553 26.3161ZM91.4857 26.4378C94.7357 27.3501 94.5838 31.7598 91.2731 32.3984C90.7264 32.4897 88.6913 32.5201 86.717 32.4593L83.1633 32.368L82.2824 31.3645C80.7334 29.631 81.4016 27.1068 83.6189 26.4682C84.9553 26.0729 90.1189 26.0729 91.4857 26.4378Z" fill="#509121"/>
<path d="M36.6613 71.7815C34.5959 72.2681 32.3786 73.6366 30.1917 75.735C28.4604 77.438 27.8529 77.8334 27.0935 77.8334H26.1216V96.871C26.1216 111.985 26.2127 115.848 26.5164 115.665C26.6987 115.513 32.9557 109.948 40.3973 103.227L53.9137 91.0624L44.2851 90.7583L43.4043 89.7547C41.6122 87.7475 42.7361 85.1017 45.5912 84.676C46.3202 84.5543 49.7221 84.5239 53.1543 84.5847L59.3809 84.676L64.6964 87.8996C67.6426 89.6635 70.4066 91.2144 70.8623 91.3361C72.138 91.6402 73.9604 91.032 74.8412 89.998C76.2992 88.2341 76.1473 85.5275 74.4767 84.1894C73.2314 83.2162 57.4674 73.2717 55.6146 72.2985L53.9744 71.447L45.895 71.4774C41.4604 71.5078 37.2992 71.6294 36.6613 71.7815Z" fill="#509121"/>
<path d="M66.2148 71.5684C66.2148 71.6596 68.7662 73.3019 71.9251 75.2482C78.1213 79.1409 79.8223 80.5398 81.0372 82.8511C81.7662 84.1892 81.8573 84.7062 81.8573 87.2607C81.8573 90.7885 81.1891 92.3699 78.7592 94.7724C76.876 96.6275 74.5068 97.6311 72.0162 97.6615C69.5255 97.6919 68.1587 97.2053 64.5442 95.0157C62.7218 93.9208 61.1727 93.0693 61.0209 93.0997C60.8994 93.1606 54.8853 98.513 47.6867 105.051C40.4881 111.56 34.3526 117.064 34.1096 117.277C33.6844 117.611 33.6844 117.733 34.14 118.402C34.8386 119.527 36.1447 120.683 37.3596 121.291C38.6961 121.991 55.3106 128.985 56.9508 129.563C58.8643 130.232 64.7265 130.111 66.8223 129.35C67.7335 129.016 73.1096 126.127 78.7288 122.903L88.9344 117.064H103.878V77.8332H102.998C102.36 77.8332 101.631 77.3162 99.9905 75.7652C97.7428 73.606 95.5255 72.2983 93.2171 71.7813C91.9414 71.4772 66.2148 71.2947 66.2148 71.5684Z" fill="#509121"/>
<path d="M4.67759 75.5218C3.85749 75.9172 2.64254 76.8295 2.03506 77.5594C0.0303898 79.9011 1.60518e-05 80.0835 1.60518e-05 97.4485C1.60518e-05 115.543 -0.0303578 115.3 2.55142 117.855C4.58647 119.923 6.19628 120.409 10.7827 120.409C14.8528 120.409 16.7056 119.923 18.4673 118.402L19.743 117.307V77.5898L18.7711 76.7383C16.736 75.0352 15.7337 74.7919 10.7827 74.7919C6.62151 74.7919 6.10516 74.8528 4.67759 75.5218Z" fill="#509121"/>
<path d="M113.447 75.3697C112.778 75.6739 111.776 76.2821 111.26 76.7383L110.257 77.5898V117.307L111.533 118.402C113.295 119.923 115.148 120.409 119.218 120.409C123.804 120.409 125.414 119.923 127.449 117.855C130.031 115.3 130 115.543 130 97.4485C130 80.0835 129.97 79.9011 127.965 77.5594C127.358 76.8295 126.143 75.9172 125.323 75.5218C123.895 74.8528 123.379 74.7919 119.218 74.7919C115.451 74.7919 114.449 74.9136 113.447 75.3697Z" fill="#509121"/>
</svg>
