<svg width="191" height="55" viewBox="0 0 191 55" fill="none" xmlns="http://www.w3.org/2000/svg">
<path d="M89.4889 0.145053C89.2077 0.398895 89.1933 0.928337 89.4384 1.9147C89.6547 2.756 90.0224 3.39423 90.7289 4.10499C91.2697 4.65619 91.4859 4.81575 91.9978 5.06959C92.7404 5.42497 93.3965 5.58453 94.2112 5.58453H94.8024V9.58073L94.4347 9.13832C93.5407 8.05042 92.0411 7.19461 90.5126 6.88275C90.2747 6.83923 89.5754 6.79572 88.9481 6.78847C87.8378 6.78121 87.8162 6.78121 87.6288 6.96253C87.4341 7.14385 87.4341 7.14385 87.4701 7.94164C87.5927 10.2987 89.0491 12.4818 91.2336 13.5842C92.0483 13.9903 93.3821 14.2877 94.4275 14.2877H94.8024V18.2186L94.2905 17.6674C93.6344 16.9639 93.0577 16.5288 92.2502 16.1371C91.1904 15.6222 90.6496 15.5061 89.1284 15.4699L87.8162 15.4336L87.636 15.6149C87.4701 15.7817 87.4485 15.8615 87.4485 16.3547C87.4485 17.0292 87.6071 17.8487 87.8883 18.5667C88.8832 21.1632 91.4066 22.9183 94.1535 22.9183H94.8024V27.8501H96.1002V22.9183H96.749C99.4959 22.9183 102.019 21.1632 103.014 18.5667C103.295 17.8487 103.454 17.0292 103.454 16.3547C103.454 15.8615 103.432 15.7817 103.267 15.6149L103.086 15.4336L101.774 15.4699C100.253 15.5061 99.7122 15.6222 98.6524 16.1371C97.8449 16.5288 97.2681 16.9639 96.612 17.6674L96.1002 18.2186V14.2877H96.4823C99.7122 14.2877 102.337 12.315 103.252 9.21085C103.331 8.9425 103.404 8.3913 103.432 7.94164C103.468 7.14385 103.468 7.14385 103.274 6.96253C103.086 6.78121 103.065 6.78121 101.954 6.78847C101.327 6.79572 100.628 6.83923 100.39 6.88275C98.8615 7.19461 97.3619 8.05042 96.4678 9.13832L96.1002 9.58073V5.58453H96.6986C97.5061 5.58453 98.1621 5.42497 98.9047 5.06959C99.4166 4.81575 99.6329 4.65619 100.174 4.10499C100.88 3.39423 101.248 2.756 101.464 1.9147C101.709 0.928337 101.695 0.398895 101.414 0.145053C101.277 0.0145053 101.154 0 100.138 0C99.2364 0 98.9119 0.0290105 98.4938 0.145053C97.4267 0.442411 96.4534 1.0879 95.8406 1.90744C95.6604 2.15403 95.4801 2.35711 95.4513 2.35711C95.4224 2.35711 95.2422 2.15403 95.062 1.90744C94.4491 1.0879 93.4758 0.442411 92.4088 0.145053C91.9906 0.0290105 91.6662 0 90.765 0C89.7484 0 89.6258 0.0145053 89.4889 0.145053ZM92.0267 1.40701C92.7693 1.61008 93.4542 2.03074 93.9012 2.55293C94.168 2.87204 94.615 3.72785 94.6871 4.07598L94.7303 4.27905H94.2545C93.6993 4.27905 93.0432 4.12675 92.5602 3.87291C91.7743 3.47401 90.938 2.43689 90.7073 1.57382L90.6352 1.30547H91.1471C91.4355 1.30547 91.832 1.34899 92.0267 1.40701ZM100.195 1.57382C99.9646 2.43689 99.1282 3.47401 98.3424 3.87291C97.8593 4.12675 97.2032 4.27905 96.6481 4.27905H96.1723L96.2155 4.07598C96.2876 3.72785 96.7346 2.87204 97.0014 2.55293C97.6574 1.78415 98.6668 1.32723 99.7194 1.31273L100.267 1.30547L100.195 1.57382ZM90.664 8.27526C92.0123 8.61613 93.2812 9.58073 94.0166 10.8064C94.3266 11.3359 94.6366 12.1699 94.7087 12.6631L94.7519 12.9822H94.4708C92.3727 12.9822 90.5343 11.9596 89.4744 10.1972C89.2221 9.7693 88.8616 8.78294 88.7967 8.31877L88.7535 8.03592L89.4528 8.08669C89.8349 8.1157 90.3829 8.20273 90.664 8.27526ZM102.106 8.31877C102.041 8.78294 101.68 9.7693 101.428 10.1972C100.368 11.9596 98.5298 12.9822 96.4318 12.9822H96.1506L96.1939 12.6631C96.3669 11.4302 97.2825 9.95061 98.3568 9.18184C99.431 8.42031 100.397 8.10845 101.846 8.05768L102.149 8.05042L102.106 8.31877ZM90.801 16.9712C92.6755 17.5586 94.0742 18.9801 94.5789 20.8151C94.8096 21.6346 94.8168 21.6129 94.2328 21.6129C91.8176 21.6129 89.6403 19.981 88.977 17.6602C88.8977 17.3773 88.8111 17.0582 88.7823 16.9422L88.7391 16.7318L89.5177 16.7753C90.0007 16.7971 90.4838 16.8769 90.801 16.9712ZM102.113 16.9494C102.091 17.0655 102.005 17.3773 101.926 17.6602C101.262 19.981 99.085 21.6129 96.6697 21.6129C96.0857 21.6129 96.0929 21.6346 96.3237 20.8151C96.7274 19.35 97.7296 18.1026 99.0489 17.4136C99.9718 16.9422 100.606 16.7753 101.601 16.7608L102.156 16.7536L102.113 16.9494Z" fill="#509121"/>
<path d="M78.6745 7.52823C78.1698 7.70955 77.7372 8.02141 77.456 8.41306C76.973 9.07305 76.9946 8.71041 76.9946 15.8833C76.9946 22.1568 77.0018 22.4106 77.1388 22.9618C77.3479 23.7741 77.5353 24.144 80.4841 29.4747L83.1228 34.2469V35.5162C83.1228 36.7564 83.1228 36.7781 83.3031 36.9522L83.4761 37.1335H92.7045L92.8559 36.9377C93.0073 36.7418 93.0073 36.7201 92.9785 33.3621L92.9569 29.9896L92.7622 29.2644C92.2936 27.4802 91.5077 26.0732 90.3181 24.891C89.799 24.3761 88.7969 23.5711 88.6743 23.5711C88.6383 23.5711 87.5784 22.4251 86.324 21.0254C84.9685 19.5168 83.9087 18.3999 83.7213 18.2766C83.3247 18.0228 82.784 17.885 82.3298 17.9285L81.9765 17.9648L81.9332 9.31964L81.7386 8.90624C81.3204 8.00691 80.5346 7.47021 79.554 7.41945C79.1936 7.39769 78.9412 7.43395 78.6745 7.52823ZM79.9001 8.8047C80.2029 8.92799 80.4985 9.28337 80.5995 9.6315C80.6427 9.80556 80.6715 11.4954 80.6715 14.3022V18.7045L80.4553 19.0454C80.1957 19.4588 80.0659 20.0173 80.1092 20.5322C80.1741 21.3155 80.3183 21.5186 83.0868 24.5937C84.5143 26.182 85.7183 27.4802 85.7544 27.4802C85.7976 27.4802 86.0356 27.2989 86.2879 27.0668L86.7421 26.6534L84.161 23.7886C82.7335 22.2148 81.5295 20.8296 81.4862 20.7208C81.2627 20.2276 81.5007 19.6111 82.0053 19.3645C82.7263 19.0164 82.7696 19.0454 85.3506 21.932C87.3117 24.115 87.6794 24.4921 88.2345 24.8765C89.6981 25.8847 90.7795 27.3062 91.2914 28.9017C91.6591 30.0404 91.7024 30.4828 91.7024 33.2606V35.828H84.4278L84.3845 33.761L81.6881 28.9017C78.7538 23.6073 78.4798 23.0924 78.3644 22.5339C78.314 22.2801 78.2996 20.1043 78.3068 15.7962C78.3284 9.47194 78.3284 9.43568 78.4798 9.2326C78.8187 8.77569 79.4171 8.59437 79.9001 8.8047Z" fill="#509121"/>
<path d="M110.772 7.49197C109.986 7.76032 109.496 8.18822 109.157 8.91349L108.97 9.31964L108.926 17.9503L108.616 17.9285C108.155 17.8923 107.557 18.0373 107.182 18.2766C106.987 18.3999 105.97 19.4733 104.608 20.9891C103.375 22.3744 102.272 23.5493 102.156 23.6073C102.048 23.6653 101.717 23.9047 101.421 24.1368C99.7484 25.4785 98.7391 27.0451 98.1335 29.2571C97.9532 29.9099 97.9532 29.9534 97.9244 33.3259C97.8956 36.7273 97.8956 36.7418 98.047 36.9377L98.1984 37.1335H107.427L107.6 36.9522C107.78 36.7781 107.78 36.7564 107.78 35.5089V34.2397L110.404 29.4602C113.238 24.3036 113.404 23.9845 113.62 23.4115C113.908 22.6065 113.915 22.3889 113.894 15.6657L113.872 9.17458L113.699 8.81195C113.461 8.32602 112.978 7.86186 112.488 7.63702C111.998 7.41219 111.219 7.34692 110.772 7.49197ZM111.991 8.86997C112.149 8.957 112.344 9.12381 112.423 9.2326C112.574 9.43568 112.574 9.47194 112.596 15.76C112.603 20.0463 112.589 22.2076 112.538 22.4614C112.423 23.0126 112.164 23.5058 109.2 28.9163L106.482 33.8553V35.828H99.2005V33.2968C99.2005 31.3604 99.2293 30.6206 99.3086 30.1274C99.6908 27.9081 100.989 25.9499 102.87 24.7387C103.144 24.5574 103.93 23.7379 105.531 21.9537C108.141 19.0454 108.177 19.0164 108.898 19.3645C109.402 19.6111 109.64 20.2276 109.424 20.7208C109.373 20.8296 108.169 22.2148 106.742 23.7886L104.161 26.6534L104.615 27.0668C104.867 27.2989 105.112 27.4802 105.149 27.4802C105.192 27.4802 106.389 26.182 107.816 24.5937C110.585 21.5186 110.729 21.3155 110.794 20.5322C110.837 20.0173 110.707 19.4588 110.448 19.0454L110.231 18.7045V14.3022C110.231 11.4954 110.26 9.80556 110.303 9.6315C110.52 8.85547 111.327 8.48558 111.991 8.86997Z" fill="#509121"/>
<path d="M3.86995 53.7056C2.7522 53.7056 1.82777 53.3343 1.09666 52.5916C0.365554 51.849 0 50.9401 0 49.865C0 48.7899 0.365554 47.881 1.09666 47.1383C1.82777 46.3956 2.7522 46.0243 3.86995 46.0243C4.55185 46.0243 5.17751 46.1905 5.74693 46.523C6.31635 46.8483 6.75571 47.2904 7.06503 47.8492L6.41125 48.2311C6.17926 47.7784 5.8348 47.4177 5.37786 47.1489C4.92091 46.8801 4.41828 46.7458 3.86995 46.7458C2.94903 46.7458 2.19684 47.0464 1.61336 47.6476C1.02988 48.2488 0.738137 48.9879 0.738137 49.865C0.738137 50.742 1.02988 51.4812 1.61336 52.0824C2.19684 52.6836 2.94903 52.9842 3.86995 52.9842C4.41828 52.9842 4.92091 52.8498 5.37786 52.581C5.8348 52.3122 6.17926 51.9515 6.41125 51.4988L7.06503 51.8702C6.76274 52.4289 6.32338 52.8746 5.74693 53.207C5.17751 53.5394 4.55185 53.7056 3.86995 53.7056Z" fill="#1A1D27"/>
<path d="M12.6916 46.1516H13.4508L10.9939 51.9551C10.7478 52.5492 10.435 52.9771 10.0554 53.2388C9.67578 53.5005 9.20477 53.6137 8.64238 53.5783V52.8993C9.03606 52.9417 9.35943 52.8852 9.61251 52.7296C9.87261 52.5669 10.087 52.2875 10.2557 51.8914L10.4034 51.5413L7.86207 46.1516H8.62129L10.7513 50.7137L12.6916 46.1516Z" fill="#1A1D27"/>
<path d="M18.8847 46.1516H19.6228V53.5783H18.8847V50.4485C18.245 50.7668 17.5771 50.9259 16.8812 50.9259C16.1782 50.9259 15.6158 50.7279 15.194 50.3318C14.7722 49.9357 14.5613 49.4264 14.5613 48.804V46.1516H15.2995V48.804C15.2995 49.2355 15.4365 49.582 15.7107 49.8438C15.9919 50.0984 16.3821 50.2257 16.8812 50.2257C17.5771 50.2257 18.245 50.0666 18.8847 49.7483V46.1516Z" fill="#1A1D27"/>
<path d="M26.5402 53.5783L25.8548 51.7535H22.3539L21.6685 53.5783H20.8882L23.7248 46.1516H24.484L27.3205 53.5783H26.5402ZM22.6176 51.0532H25.5912L24.1044 47.0747L22.6176 51.0532Z" fill="#1A1D27"/>
<path d="M31.7651 53.7056C30.6474 53.7056 29.7229 53.3343 28.9918 52.5916C28.2607 51.849 27.8952 50.9401 27.8952 49.865C27.8952 48.7899 28.2607 47.881 28.9918 47.1383C29.7229 46.3956 30.6474 46.0243 31.7651 46.0243C32.447 46.0243 33.0727 46.1905 33.6421 46.523C34.2115 46.8483 34.6509 47.2904 34.9602 47.8492L34.3064 48.2311C34.0744 47.7784 33.73 47.4177 33.273 47.1489C32.8161 46.8801 32.3134 46.7458 31.7651 46.7458C30.8442 46.7458 30.092 47.0464 29.5085 47.6476C28.925 48.2488 28.6333 48.9879 28.6333 49.865C28.6333 50.742 28.925 51.4812 29.5085 52.0824C30.092 52.6836 30.8442 52.9842 31.7651 52.9842C32.3134 52.9842 32.8161 52.8498 33.273 52.581C33.73 52.3122 34.0744 51.9515 34.3064 51.4988L34.9602 51.8702C34.6579 52.4289 34.2185 52.8746 33.6421 53.207C33.0727 53.5394 32.447 53.7056 31.7651 53.7056Z" fill="#1A1D27"/>
<path d="M41.2356 46.1516H41.9737V53.5783H41.2356V50.109H37.2286V53.5783H36.4904V46.1516H37.2286V49.4088H41.2356V46.1516Z" fill="#1A1D27"/>
<path d="M43.9739 46.1516H44.7121V53.5783H43.9739V46.1516Z" fill="#1A1D27"/>
<path d="M54.3128 46.1516V46.8519H52.0457V53.5783H51.3075V46.8519H49.0404V46.1516H54.3128Z" fill="#1A1D27"/>
<path d="M56.4222 52.8781H60.0074V53.5783H55.684V46.1516H59.9547V46.8519H56.4222V49.483H59.6911V50.1833H56.4222V52.8781Z" fill="#1A1D27"/>
<path d="M66.6535 53.5783H65.81L63.8064 50.4061L61.8029 53.5783H60.9593L63.3846 49.7483L61.1175 46.1516H61.9506L63.8064 49.0799L65.6623 46.1516H66.4954L64.2282 49.7483L66.6535 53.5783Z" fill="#1A1D27"/>
<path d="M72.7704 46.1516H73.5085V53.5783H72.7704V50.109H68.7633V53.5783H68.0252V46.1516H68.7633V49.4088H72.7704V46.1516Z" fill="#1A1D27"/>
<path d="M81.6142 52.5916C80.876 53.3343 79.9727 53.7056 78.9041 53.7056C77.8356 53.7056 76.9323 53.3343 76.1941 52.5916C75.456 51.8419 75.0869 50.933 75.0869 49.865C75.0869 48.7969 75.456 47.8916 76.1941 47.1489C76.9323 46.3992 77.8356 46.0243 78.9041 46.0243C79.9727 46.0243 80.876 46.3992 81.6142 47.1489C82.3523 47.8916 82.7214 48.7969 82.7214 49.865C82.7214 50.933 82.3523 51.8419 81.6142 52.5916ZM76.7108 52.0824C77.3013 52.6836 78.0324 52.9842 78.9041 52.9842C79.7758 52.9842 80.507 52.6836 81.0975 52.0824C81.688 51.4741 81.9832 50.735 81.9832 49.865C81.9832 48.995 81.688 48.2594 81.0975 47.6582C80.507 47.0499 79.7758 46.7458 78.9041 46.7458C78.0324 46.7458 77.3013 47.0499 76.7108 47.6582C76.1203 48.2594 75.8251 48.995 75.8251 49.865C75.8251 50.735 76.1203 51.4741 76.7108 52.0824Z" fill="#1A1D27"/>
<path d="M83.1924 53.5783V52.9205C83.7056 52.9913 84.0887 52.8321 84.3418 52.4431C84.6019 52.047 84.732 51.3256 84.732 50.2787V46.1516H89.5193V53.5783H88.7812V46.8519H85.4701V50.3C85.4701 50.9719 85.4174 51.5342 85.3119 51.9869C85.2065 52.4396 85.0483 52.7861 84.8374 53.0266C84.6335 53.26 84.398 53.4192 84.1309 53.5041C83.8708 53.5819 83.558 53.6066 83.1924 53.5783Z" fill="#1A1D27"/>
<path d="M97.6316 52.5916C96.8934 53.3343 95.9901 53.7056 94.9216 53.7056C93.853 53.7056 92.9497 53.3343 92.2115 52.5916C91.4734 51.8419 91.1043 50.933 91.1043 49.865C91.1043 48.7969 91.4734 47.8916 92.2115 47.1489C92.9497 46.3992 93.853 46.0243 94.9216 46.0243C95.9901 46.0243 96.8934 46.3992 97.6316 47.1489C98.3697 47.8916 98.7388 48.7969 98.7388 49.865C98.7388 50.933 98.3697 51.8419 97.6316 52.5916ZM92.7282 52.0824C93.3187 52.6836 94.0499 52.9842 94.9216 52.9842C95.7933 52.9842 96.5244 52.6836 97.1149 52.0824C97.7054 51.4741 98.0006 50.735 98.0006 49.865C98.0006 48.995 97.7054 48.2594 97.1149 47.6582C96.5244 47.0499 95.7933 46.7458 94.9216 46.7458C94.0499 46.7458 93.3187 47.0499 92.7282 47.6582C92.1377 48.2594 91.8425 48.995 91.8425 49.865C91.8425 50.735 92.1377 51.4741 92.7282 52.0824Z" fill="#1A1D27"/>
<path d="M104.43 46.1516V46.8519H101.056V53.5783H100.317V46.1516H104.43Z" fill="#1A1D27"/>
<path d="M105.803 46.1516H106.541V53.5783H105.803V46.1516Z" fill="#1A1D27"/>
<path d="M108.255 45.218C108.163 45.3099 108.051 45.3559 107.917 45.3559C107.784 45.3559 107.671 45.3099 107.58 45.218C107.488 45.126 107.443 45.0129 107.443 44.8785C107.443 44.7441 107.488 44.6309 107.58 44.539C107.671 44.447 107.784 44.401 107.917 44.401C108.051 44.401 108.163 44.447 108.255 44.539C108.346 44.6309 108.392 44.7441 108.392 44.8785C108.392 45.0129 108.346 45.126 108.255 45.218ZM110.258 45.218C110.167 45.3099 110.054 45.3559 109.921 45.3559C109.787 45.3559 109.675 45.3099 109.583 45.218C109.492 45.126 109.446 45.0129 109.446 44.8785C109.446 44.7441 109.492 44.6309 109.583 44.539C109.675 44.447 109.787 44.401 109.921 44.401C110.054 44.401 110.167 44.447 110.258 44.539C110.349 44.6309 110.395 44.7441 110.395 44.8785C110.395 45.0129 110.349 45.126 110.258 45.218ZM108.55 46.1516H109.288V53.5783H108.55V46.1516Z" fill="#1A1D27"/>
<path d="M118.34 49.727C118.699 49.8827 118.984 50.1196 119.194 50.4379C119.412 50.7491 119.521 51.1063 119.521 51.5095C119.521 52.0824 119.321 52.5704 118.92 52.9736C118.52 53.3767 118.035 53.5783 117.465 53.5783H114.249V46.1516H117.223C117.771 46.1516 118.238 46.3497 118.625 46.7458C119.012 47.1348 119.205 47.6016 119.205 48.1462C119.205 48.8394 118.917 49.3663 118.34 49.727ZM117.223 46.8519H114.987V49.4406H117.223C117.567 49.4406 117.859 49.3168 118.098 49.0693C118.344 48.8146 118.467 48.5069 118.467 48.1462C118.467 47.7926 118.344 47.4884 118.098 47.2338C117.859 46.9792 117.567 46.8519 117.223 46.8519ZM117.465 52.8781C117.831 52.8781 118.14 52.7472 118.393 52.4855C118.653 52.2168 118.783 51.8914 118.783 51.5095C118.783 51.1346 118.653 50.8128 118.393 50.544C118.14 50.2752 117.831 50.1408 117.465 50.1408H114.987V52.8781H117.465Z" fill="#1A1D27"/>
<path d="M125.85 53.5783V47.5309L121.737 53.5783H121.104V46.1516H121.842V52.1991L125.955 46.1516H126.588V53.5783H125.85Z" fill="#1A1D27"/>
<path d="M133.86 52.8781H134.651V55H133.913V53.5783H128.641V55H127.902V52.8781H128.503C128.989 52.3052 129.231 51.421 129.231 50.2257V46.1516H133.86V52.8781ZM129.379 52.8781H133.122V46.8519H129.969V50.2469C129.969 51.421 129.772 52.2981 129.379 52.8781Z" fill="#1A1D27"/>
<path d="M142.187 52.5916C141.449 53.3343 140.546 53.7056 139.477 53.7056C138.409 53.7056 137.505 53.3343 136.767 52.5916C136.029 51.8419 135.66 50.933 135.66 49.865C135.66 48.7969 136.029 47.8916 136.767 47.1489C137.505 46.3992 138.409 46.0243 139.477 46.0243C140.546 46.0243 141.449 46.3992 142.187 47.1489C142.925 47.8916 143.294 48.7969 143.294 49.865C143.294 50.933 142.925 51.8419 142.187 52.5916ZM137.284 52.0824C137.874 52.6836 138.605 52.9842 139.477 52.9842C140.349 52.9842 141.08 52.6836 141.67 52.0824C142.261 51.4741 142.556 50.735 142.556 49.865C142.556 48.995 142.261 48.2594 141.67 47.6582C141.08 47.0499 140.349 46.7458 139.477 46.7458C138.605 46.7458 137.874 47.0499 137.284 47.6582C136.693 48.2594 136.398 48.995 136.398 49.865C136.398 50.735 136.693 51.4741 137.284 52.0824Z" fill="#1A1D27"/>
<path d="M147.615 49.1223C148.226 49.1223 148.746 49.3416 149.175 49.7801C149.611 50.2186 149.829 50.742 149.829 51.3503C149.829 51.9657 149.611 52.4926 149.175 52.9311C148.746 53.3626 148.226 53.5783 147.615 53.5783H144.873V46.1516H149.196V46.8519H145.611V49.1223H147.615ZM147.615 52.8781C148.022 52.8781 148.37 52.7296 148.659 52.4325C148.947 52.1354 149.091 51.7747 149.091 51.3503C149.091 50.933 148.947 50.5758 148.659 50.2787C148.37 49.9746 148.022 49.8225 147.615 49.8225H145.611V52.8781H147.615Z" fill="#1A1D27"/>
<path d="M155.341 46.1516H156.1L153.643 51.9551C153.397 52.5492 153.084 52.9771 152.705 53.2388C152.325 53.5005 151.854 53.6137 151.292 53.5783V52.8993C151.685 52.9417 152.009 52.8852 152.262 52.7296C152.522 52.5669 152.736 52.2875 152.905 51.8914L153.053 51.5413L150.511 46.1516H151.27L153.4 50.7137L155.341 46.1516Z" fill="#1A1D27"/>
<path d="M161.46 49.727C161.819 49.8827 162.103 50.1196 162.314 50.4379C162.532 50.7491 162.641 51.1063 162.641 51.5095C162.641 52.0824 162.441 52.5704 162.04 52.9736C161.639 53.3767 161.154 53.5783 160.585 53.5783H157.369V46.1516H160.342C160.891 46.1516 161.358 46.3497 161.745 46.7458C162.131 47.1348 162.325 47.6016 162.325 48.1462C162.325 48.8394 162.036 49.3663 161.46 49.727ZM160.342 46.8519H158.107V49.4406H160.342C160.687 49.4406 160.978 49.3168 161.217 49.0693C161.464 48.8146 161.587 48.5069 161.587 48.1462C161.587 47.7926 161.464 47.4884 161.217 47.2338C160.978 46.9792 160.687 46.8519 160.342 46.8519ZM160.585 52.8781C160.95 52.8781 161.26 52.7472 161.513 52.4855C161.773 52.2168 161.903 51.8914 161.903 51.5095C161.903 51.1346 161.773 50.8128 161.513 50.544C161.26 50.2752 160.95 50.1408 160.585 50.1408H158.107V52.8781H160.585Z" fill="#1A1D27"/>
<path d="M169.138 53.5783L168.452 51.7535H164.952L164.266 53.5783H163.486L166.322 46.1516H167.082L169.918 53.5783H169.138ZM165.215 51.0532H168.189L166.702 47.0747L165.215 51.0532Z" fill="#1A1D27"/>
<path d="M175.927 46.1516H176.666V53.5783H175.927V50.109H171.92V53.5783H171.182V46.1516H171.92V49.4088H175.927V46.1516Z" fill="#1A1D27"/>
<path d="M183.411 46.1516H184.149V53.5783H183.411V50.109H179.404V53.5783H178.666V46.1516H179.404V49.4088H183.411V46.1516Z" fill="#1A1D27"/>
<path d="M191 46.1516V53.5783H190.262V50.6076H188.49L186.466 53.5783H185.622L187.678 50.5758C187.151 50.4839 186.712 50.2328 186.36 49.8225C186.009 49.4052 185.833 48.9243 185.833 48.3796C185.833 47.7643 186.047 47.2409 186.476 46.8094C186.912 46.3709 187.436 46.1516 188.047 46.1516H191ZM188.047 49.9074H190.262V46.8519H188.047C187.64 46.8519 187.292 47.0004 187.004 47.2975C186.715 47.5945 186.571 47.9552 186.571 48.3796C186.571 48.7969 186.715 49.1577 187.004 49.4618C187.292 49.7589 187.64 49.9074 188.047 49.9074Z" fill="#1A1D27"/>
</svg>
