<svg width="111" height="57" viewBox="0 0 111 57" fill="none" xmlns="http://www.w3.org/2000/svg">
<path d="M51.241 0.114102C51.0273 0.313779 51.0164 0.73025 51.2026 1.50615C51.3669 2.16793 51.6462 2.66998 52.183 3.22908C52.5938 3.66266 52.758 3.78818 53.1469 3.98785C53.711 4.2674 54.2095 4.39292 54.8284 4.39292H55.2775V7.53642L54.9982 7.18841C54.319 6.33264 53.1798 5.65944 52.0186 5.41412C51.8379 5.37989 51.3067 5.34566 50.8301 5.33996C49.9867 5.3342 49.9703 5.3342 49.8279 5.47688C49.68 5.61951 49.68 5.61951 49.7073 6.24707C49.8005 8.10119 50.9069 9.81847 52.5664 10.6856C53.1853 11.0051 54.1985 11.239 54.9927 11.239H55.2775V14.3312L54.8886 13.8976C54.3902 13.3442 53.9521 13.0019 53.3387 12.6938C52.5335 12.2888 52.1227 12.1974 50.9671 12.169L49.9703 12.1404L49.8334 12.283C49.7073 12.4142 49.6909 12.477 49.6909 12.865C49.6909 13.3956 49.8114 14.0402 50.025 14.605C50.7808 16.6474 52.6978 18.0281 54.7845 18.0281H55.2775V21.9075H56.2634V18.0281H56.7563C58.843 18.0281 60.7598 16.6474 61.5157 14.605C61.7291 14.0402 61.8499 13.3956 61.8499 12.865C61.8499 12.477 61.8332 12.4142 61.7079 12.283L61.5703 12.1404L60.5737 12.169C59.4182 12.1974 59.0074 12.2888 58.2023 12.6938C57.5888 13.0019 57.1506 13.3442 56.6522 13.8976L56.2634 14.3312V11.239H56.5537C59.0074 11.239 61.0014 9.68726 61.6965 7.24546C61.7565 7.03437 61.8119 6.60079 61.8332 6.24707C61.8605 5.61951 61.8605 5.61951 61.7132 5.47688C61.5703 5.33425 61.5544 5.33425 60.7104 5.33996C60.2341 5.34566 59.7031 5.37989 59.5223 5.41412C58.3611 5.65944 57.2219 6.33264 56.5427 7.18841L56.2634 7.53642V4.39292H56.718C57.3314 4.39292 57.8298 4.2674 58.3939 3.98785C58.7828 3.78818 58.9471 3.66266 59.3582 3.22908C59.8945 2.66998 60.1741 2.16793 60.3382 1.50615C60.5243 0.73025 60.5136 0.313779 60.3002 0.114102C60.1961 0.0114099 60.1027 0 59.3308 0C58.6459 0 58.3994 0.0228224 58.0818 0.114102C57.2711 0.34801 56.5317 0.855766 56.0662 1.50043C55.9293 1.69441 55.7923 1.85416 55.7705 1.85416C55.7485 1.85416 55.6116 1.69441 55.4747 1.50043C55.0091 0.855766 54.2697 0.34801 53.4591 0.114102C53.1414 0.0228203 52.895 0 52.2104 0C51.4381 0 51.345 0.0114068 51.241 0.114102ZM53.1689 1.10678C53.733 1.26652 54.2533 1.59743 54.5929 2.00819C54.7956 2.25921 55.1351 2.93241 55.1899 3.20626L55.2227 3.366H54.8613C54.4395 3.366 53.9411 3.24619 53.5742 3.04652C52.9771 2.73273 52.3418 1.91691 52.1666 1.238L52.1118 1.02691H52.5007C52.7197 1.02691 53.021 1.06115 53.1689 1.10678ZM59.3741 1.238C59.1991 1.91691 58.5637 2.73273 57.9668 3.04652C57.5998 3.24619 57.1013 3.366 56.6796 3.366H56.3182L56.351 3.20626C56.4058 2.93241 56.7453 2.25921 56.948 2.00819C57.4464 1.40345 58.2132 1.04403 59.0128 1.03262L59.4288 1.02685L59.3741 1.238ZM52.1337 6.5095C53.1579 6.77764 54.1219 7.53642 54.6805 8.50055C54.916 8.91707 55.1515 9.57311 55.2063 9.96108L55.2391 10.2121H55.0256C53.4317 10.2121 52.0351 9.40769 51.2299 8.02134C51.0383 7.68475 50.7644 6.90886 50.7151 6.54373L50.6823 6.32123L51.2135 6.36117C51.5038 6.38399 51.9201 6.45245 52.1337 6.5095ZM60.8259 6.54373C60.7765 6.90885 60.5022 7.68475 60.3108 8.02134C59.5055 9.40768 58.1091 10.2121 56.5153 10.2121H56.3017L56.3346 9.96107C56.466 8.99125 57.1616 7.82737 57.9777 7.22264C58.7937 6.6236 59.5276 6.37828 60.6283 6.33835L60.8585 6.33258L60.8259 6.54373ZM52.2377 13.3499C53.6617 13.812 54.7243 14.9302 55.1077 16.3736C55.283 17.0183 55.2884 17.0012 54.8448 17.0012C53.01 17.0012 51.356 15.7175 50.8521 13.8919C50.7918 13.6694 50.7261 13.4184 50.7042 13.3271L50.6714 13.1616L51.2628 13.1958C51.6298 13.213 51.9968 13.2757 52.2377 13.3499ZM60.8312 13.3328C60.8145 13.4241 60.7491 13.6694 60.6891 13.8919C60.1847 15.7175 58.5309 17.0012 56.696 17.0012C56.2524 17.0012 56.2579 17.0183 56.4332 16.3736C56.7399 15.2211 57.5012 14.2399 58.5035 13.6979C59.2046 13.3271 59.6864 13.1958 60.4422 13.1844L60.8639 13.1787L60.8312 13.3328Z" fill="#0C3313"/>
<path d="M43.2763 8.25893C42.8929 8.40156 42.5642 8.64688 42.3506 8.95496C41.9837 9.47412 42.0001 9.18886 42.0001 14.8312C42.0001 19.7661 42.0056 19.9657 42.1097 20.3993C42.2685 21.0383 42.4109 21.3293 44.651 25.5225L46.6556 29.2764V30.2749C46.6556 31.2505 46.6556 31.2675 46.7925 31.4045L46.9239 31.5471H53.9345L54.0496 31.3931C54.1646 31.239 54.1646 31.2219 54.1427 28.5804L54.1263 25.9275L53.9784 25.3571C53.6224 23.9536 53.0254 22.8468 52.1217 21.9169C51.7273 21.5118 50.966 20.8786 50.8729 20.8786C50.8455 20.8786 50.0404 19.9771 49.0874 18.8761C48.0577 17.6894 47.2526 16.8108 47.1102 16.7138C46.8089 16.5142 46.3982 16.4058 46.0531 16.44L45.7847 16.4686L45.7518 9.66809L45.604 9.3429C45.2863 8.63547 44.6894 8.21329 43.9444 8.17336C43.6706 8.15625 43.4789 8.18477 43.2763 8.25893ZM44.2073 9.26303C44.4374 9.36002 44.6619 9.63957 44.7387 9.91341C44.7715 10.0503 44.7934 11.3796 44.7934 13.5875V17.0504L44.6291 17.3186C44.4319 17.6438 44.3333 18.0831 44.3662 18.4881C44.4155 19.1043 44.525 19.2641 46.6282 21.683C47.7126 22.9324 48.6273 23.9536 48.6547 23.9536C48.6875 23.9536 48.8683 23.811 49.06 23.6284L49.4051 23.3032L47.4443 21.0497C46.3598 19.8117 45.4452 18.7221 45.4123 18.6365C45.2425 18.2485 45.4233 17.7636 45.8066 17.5696C46.3543 17.2958 46.3872 17.3186 48.348 19.5893C49.8378 21.3065 50.1171 21.6031 50.5388 21.9055C51.6507 22.6985 52.4722 23.8167 52.861 25.0718C53.1404 25.9675 53.1733 26.3155 53.1733 28.5006V30.5202H47.6469L47.614 28.8942L45.5656 25.0718C43.3365 20.9071 43.1284 20.5021 43.0407 20.0627C43.0024 19.8631 42.9915 18.1515 42.997 14.7627C43.0134 9.7879 43.0134 9.75938 43.1284 9.59963C43.3858 9.24021 43.8404 9.09758 44.2073 9.26303Z" fill="#0C3313"/>
<path d="M66.9076 8.23041C66.3105 8.4415 65.9383 8.7781 65.6808 9.34861L65.5387 9.6681L65.5053 16.4572L65.2698 16.44C64.9196 16.4115 64.4653 16.5256 64.1804 16.7138C64.0323 16.8108 63.2597 17.6552 62.225 18.8476C61.2883 19.9373 60.4504 20.8615 60.3623 20.9071C60.2802 20.9527 60.0288 21.141 59.8039 21.3236C58.5333 22.379 57.7665 23.6113 57.3065 25.3514C57.1695 25.8649 57.1695 25.8991 57.1476 28.552C57.1257 31.2276 57.1257 31.239 57.2408 31.3931L57.3558 31.5471H64.3665L64.4979 31.4045C64.6347 31.2675 64.6347 31.2505 64.6347 30.2692V29.2708L66.6281 25.5111C68.781 21.4548 68.9071 21.2038 69.0712 20.7531C69.29 20.1198 69.2953 19.9487 69.2793 14.6601L69.2626 9.55399L69.1312 9.26874C68.9504 8.8865 68.5835 8.52138 68.2112 8.34451C67.839 8.16766 67.2472 8.11631 66.9076 8.23041ZM67.8337 9.31438C67.9537 9.38284 68.1018 9.51406 68.1619 9.59963C68.2766 9.75938 68.2766 9.7879 68.2933 14.7342C68.2986 18.1059 68.288 19.8061 68.2492 20.0057C68.1619 20.4393 67.9651 20.8272 65.7134 25.0833L63.6486 28.9684V30.5202H58.117V28.5291C58.117 27.0058 58.1389 26.4239 58.1992 26.0359C58.4895 24.2902 59.4757 22.7498 60.9047 21.7971C61.1128 21.6545 61.7099 21.0098 62.9262 19.6063C64.9089 17.3186 64.9363 17.2958 65.484 17.5696C65.8669 17.7636 66.0477 18.2485 65.8836 18.6365C65.8449 18.7221 64.9302 19.8117 63.8461 21.0497L61.8854 23.3032L62.2303 23.6284C62.4218 23.811 62.6079 23.9536 62.636 23.9536C62.6686 23.9536 63.578 22.9324 64.662 21.683C66.7656 19.2641 66.875 19.1043 66.9243 18.4881C66.957 18.0831 66.8583 17.6438 66.6615 17.3186L66.4967 17.0504V13.5875C66.4967 11.3796 66.5187 10.0503 66.5513 9.91342C66.7162 9.30297 67.3293 9.01201 67.8337 9.31438Z" fill="#0C3313"/>
<path d="M8.13867 42.0212C8.13867 43.3865 7.79297 44.4353 7.10156 45.1677C6.41602 45.8943 5.42285 46.2576 4.12207 46.2576H3.52441V50.9158H1.13379V38.0662H4.39453C6.89062 38.0662 8.13867 39.3845 8.13867 42.0212ZM3.52441 44.1833H3.98145C4.56738 44.1833 5.00391 44.0222 5.29102 43.7C5.57812 43.3777 5.72168 42.8503 5.72168 42.1179C5.72168 41.4441 5.58984 40.946 5.32617 40.6238C5.0625 40.2957 4.65527 40.1316 4.10449 40.1316H3.52441V44.1833ZM12.1553 45.9148V50.9158H9.76465V38.0662H12.8936C14.2178 38.0662 15.1934 38.3796 15.8203 39.0066C16.4531 39.6335 16.7695 40.5916 16.7695 41.8806C16.7695 43.5037 16.2217 44.6375 15.126 45.282L17.5957 50.9158H15.0381L13.0078 45.9148H12.1553ZM12.1553 43.8582H12.7705C13.333 43.8582 13.7373 43.7 13.9834 43.3835C14.2295 43.0613 14.3525 42.5837 14.3525 41.9509C14.3525 41.2947 14.2207 40.8289 13.957 40.5535C13.6992 40.2722 13.2979 40.1316 12.7529 40.1316H12.1553V43.8582ZM19.1953 50.9158V38.0662H21.4453V50.9158H19.1953ZM29.6895 38.0662H32.0977L29.0742 50.9158H26.0332L23.0273 38.0662H25.4355L27.1143 45.9148C27.2666 46.5828 27.416 47.5408 27.5625 48.7888C27.6855 47.7283 27.8408 46.7703 28.0283 45.9148L29.6895 38.0662ZM39.0674 50.9158L38.3291 47.6726H34.9805L34.2422 50.9158H31.8516L35.0332 38.0134H38.2764L41.4668 50.9158H39.0674ZM37.8809 45.5544L37.1953 42.5662C37.1543 42.3845 37.0605 41.9304 36.9141 41.2039C36.7734 40.4714 36.6885 39.9822 36.6592 39.7361C36.583 40.24 36.4863 40.7966 36.3691 41.406C36.252 42.0095 35.9473 43.3923 35.4551 45.5544H37.8809ZM45.9316 50.9158H43.5498V40.1667H41.0889V38.0662H48.3926V40.1667H45.9316V50.9158ZM58.1045 43.7878H62.0332V50.3796C60.9199 50.8542 59.7363 51.0916 58.4824 51.0916C56.9883 51.0916 55.8369 50.5232 55.0283 49.3865C54.2256 48.2498 53.8242 46.6121 53.8242 44.4734C53.8242 42.4109 54.2842 40.7966 55.2041 39.6306C56.1299 38.4646 57.4219 37.8816 59.0801 37.8816C60.1055 37.8816 61.084 38.1453 62.0156 38.6726L61.2598 40.6238C60.5332 40.2019 59.8535 39.991 59.2207 39.991C58.3125 39.991 57.5918 40.3982 57.0586 41.2126C56.5312 42.0212 56.2676 43.1257 56.2676 44.5261C56.2676 45.9675 56.458 47.072 56.8389 47.8396C57.2256 48.6072 57.7852 48.991 58.5176 48.991C58.9043 48.991 59.2969 48.9412 59.6953 48.8416V45.8972H58.1045V43.7878ZM70.0752 50.9158L69.3369 47.6726H65.9883L65.25 50.9158H62.8594L66.041 38.0134H69.2842L72.4746 50.9158H70.0752ZM68.8887 45.5544L68.2031 42.5662C68.1621 42.3845 68.0684 41.9304 67.9219 41.2039C67.7812 40.4714 67.6963 39.9822 67.667 39.7361C67.5908 40.24 67.4941 40.7966 67.377 41.406C67.2598 42.0095 66.9551 43.3923 66.4629 45.5544H68.8887ZM75.999 45.9148V50.9158H73.6084V38.0662H76.7373C78.0615 38.0662 79.0371 38.3796 79.6641 39.0066C80.2969 39.6335 80.6133 40.5916 80.6133 41.8806C80.6133 43.5037 80.0654 44.6375 78.9697 45.282L81.4395 50.9158H78.8818L76.8516 45.9148H75.999ZM75.999 43.8582H76.6143C77.1768 43.8582 77.5811 43.7 77.8271 43.3835C78.0732 43.0613 78.1963 42.5837 78.1963 41.9509C78.1963 41.2947 78.0645 40.8289 77.8008 40.5535C77.543 40.2722 77.1416 40.1316 76.5967 40.1316H75.999V43.8582ZM90.7822 44.3679C90.7822 46.489 90.3486 48.1121 89.4814 49.2371C88.6201 50.3562 87.3779 50.9158 85.7549 50.9158H82.6084V38.0662H86.0449C87.5391 38.0662 88.7021 38.6199 89.5342 39.7273C90.3662 40.8289 90.7822 42.3757 90.7822 44.3679ZM88.3301 44.4382C88.3301 41.5671 87.5391 40.1316 85.957 40.1316H84.999V48.824H85.7725C86.6455 48.824 87.29 48.4607 87.7061 47.7341C88.1221 47.0017 88.3301 45.9031 88.3301 44.4382ZM98.4551 50.9158H92.6631V38.0662H98.4551V40.1316H95.0537V43.1902H98.209V45.2644H95.0537V48.824H98.4551V50.9158ZM109.327 50.9158H106.409L102.437 41.6082H102.322C102.469 42.3171 102.542 43.0789 102.542 43.8933V50.9158H100.327V38.0662H103.263L107.2 47.2771H107.297C107.186 46.6619 107.13 45.9294 107.13 45.0798V38.0662H109.327V50.9158Z" fill="#0C3313"/>
</svg>
