<svg width="200" height="55" viewBox="0 0 200 55" fill="none" xmlns="http://www.w3.org/2000/svg">
<path d="M93.6526 0.145053C93.3583 0.398895 93.3432 0.928337 93.5998 1.9147C93.8261 2.756 94.2109 3.39423 94.9503 4.10499C95.5162 4.65619 95.7426 4.81575 96.2783 5.06959C97.0554 5.42497 97.7421 5.58453 98.5947 5.58453H99.2134V9.58073L98.8286 9.13832C97.893 8.05042 96.3236 7.19461 94.724 6.88275C94.475 6.83923 93.7431 6.79572 93.0867 6.78847C91.9248 6.78121 91.9021 6.78121 91.7059 6.96253C91.5022 7.14385 91.5022 7.14385 91.5399 7.94164C91.6682 10.2987 93.1923 12.4818 95.4785 13.5842C96.3311 13.9903 97.727 14.2877 98.821 14.2877H99.2134V18.2186L98.6777 17.6674C97.991 16.9639 97.3874 16.5288 96.5424 16.1371C95.4332 15.6222 94.8674 15.5061 93.2753 15.4699L91.9021 15.4336L91.7135 15.6149C91.5399 15.7817 91.5173 15.8615 91.5173 16.3547C91.5173 17.0292 91.6833 17.8487 91.9776 18.5667C93.0188 21.1632 95.6596 22.9183 98.5343 22.9183H99.2134V27.8501H100.571V22.9183H101.251C104.125 22.9183 106.766 21.1632 107.807 18.5667C108.102 17.8487 108.268 17.0292 108.268 16.3547C108.268 15.8615 108.245 15.7817 108.071 15.6149L107.883 15.4336L106.51 15.4699C104.917 15.5061 104.352 15.6222 103.242 16.1371C102.397 16.5288 101.794 16.9639 101.107 17.6674L100.571 18.2186V14.2877H100.971C104.352 14.2877 107.098 12.315 108.056 9.21085C108.139 8.9425 108.215 8.3913 108.245 7.94164C108.283 7.14385 108.283 7.14385 108.079 6.96253C107.883 6.78121 107.86 6.78121 106.698 6.78847C106.042 6.79572 105.31 6.83923 105.061 6.88275C103.461 7.19461 101.892 8.05042 100.956 9.13832L100.571 9.58073V5.58453H101.198C102.043 5.58453 102.729 5.42497 103.507 5.06959C104.042 4.81575 104.269 4.65619 104.834 4.10499C105.574 3.39423 105.959 2.756 106.185 1.9147C106.442 0.928337 106.427 0.398895 106.132 0.145053C105.989 0.0145053 105.861 0 104.797 0C103.854 0 103.514 0.0290105 103.076 0.145053C101.96 0.442411 100.941 1.0879 100.3 1.90744C100.111 2.15403 99.9226 2.35711 99.8924 2.35711C99.8622 2.35711 99.6736 2.15403 99.485 1.90744C98.8436 1.0879 97.8251 0.442411 96.7084 0.145053C96.2708 0.0290105 95.9312 0 94.9881 0C93.9242 0 93.7959 0.0145053 93.6526 0.145053ZM96.3085 1.40701C97.0856 1.61008 97.8024 2.03074 98.2702 2.55293C98.5494 2.87204 99.0172 3.72785 99.0926 4.07598L99.1379 4.27905H98.6399C98.059 4.27905 97.3723 4.12675 96.8668 3.87291C96.0444 3.47401 95.1692 2.43689 94.9277 1.57382L94.8523 1.30547H95.388C95.6898 1.30547 96.1048 1.34899 96.3085 1.40701ZM104.857 1.57382C104.616 2.43689 103.74 3.47401 102.918 3.87291C102.412 4.12675 101.726 4.27905 101.145 4.27905H100.647L100.692 4.07598C100.768 3.72785 101.235 2.87204 101.515 2.55293C102.201 1.78415 103.258 1.32723 104.359 1.31273L104.933 1.30547L104.857 1.57382ZM94.8824 8.27526C96.2934 8.61613 97.6213 9.58073 98.3909 10.8064C98.7154 11.3359 99.0398 12.1699 99.1153 12.6631L99.1605 12.9822H98.8663C96.6706 12.9822 94.7466 11.9596 93.6375 10.1972C93.3734 9.7693 92.9962 8.78294 92.9282 8.31877L92.883 8.03592L93.6149 8.08669C94.0147 8.1157 94.5882 8.20273 94.8824 8.27526ZM106.857 8.31877C106.789 8.78294 106.411 9.7693 106.147 10.1972C105.038 11.9596 103.114 12.9822 100.919 12.9822H100.624L100.67 12.6631C100.851 11.4302 101.809 9.95061 102.933 9.18184C104.057 8.42031 105.068 8.10845 106.585 8.05768L106.902 8.05042L106.857 8.31877ZM95.0258 16.9712C96.9875 17.5586 98.4513 18.9801 98.9795 20.8151C99.2209 21.6346 99.2284 21.6129 98.6173 21.6129C96.0897 21.6129 93.811 19.981 93.1169 17.6602C93.0339 17.3773 92.9433 17.0582 92.9132 16.9422L92.8679 16.7318L93.6828 16.7753C94.1883 16.7971 94.6938 16.8769 95.0258 16.9712ZM106.864 16.9494C106.842 17.0654 106.751 17.3773 106.668 17.6602C105.974 19.981 103.695 21.6129 101.168 21.6129C100.556 21.6129 100.564 21.6346 100.805 20.8151C101.228 19.35 102.277 18.1026 103.657 17.4136C104.623 16.9422 105.287 16.7753 106.328 16.7608L106.909 16.7536L106.864 16.9494Z" fill="#509121"/>
<path d="M82.335 7.52823C81.8069 7.70955 81.3541 8.02141 81.0599 8.41306C80.5544 9.07305 80.577 8.71041 80.577 15.8833C80.577 22.1568 80.5845 22.4106 80.7279 22.9618C80.9467 23.7741 81.1429 24.144 84.2288 29.4747L86.9904 34.2469V35.5162C86.9904 36.7564 86.9904 36.7781 87.179 36.9522L87.3601 37.1335H97.0179L97.1763 36.9377C97.3348 36.7418 97.3348 36.7201 97.3046 33.3621L97.282 29.9896L97.0782 29.2644C96.5878 27.4802 95.7654 26.0732 94.5204 24.891C93.9772 24.3761 92.9284 23.5711 92.8001 23.5711C92.7624 23.5711 91.6533 22.4251 90.3404 21.0254C88.9219 19.5168 87.8128 18.3999 87.6166 18.2766C87.2016 18.0228 86.6357 17.885 86.1604 17.9285L85.7907 17.9648L85.7454 9.31964L85.5417 8.90624C85.1041 8.00691 84.2817 7.47021 83.2555 7.41945C82.8783 7.39769 82.6142 7.43395 82.335 7.52823ZM83.6177 8.8047C83.9346 8.92799 84.2439 9.28337 84.3496 9.6315C84.3948 9.80556 84.425 11.4954 84.425 14.3022V18.7045L84.1987 19.0454C83.927 19.4588 83.7912 20.0173 83.8365 20.5322C83.9044 21.3155 84.0553 21.5186 86.9526 24.5937C88.4466 26.182 89.7066 27.4802 89.7444 27.4802C89.7896 27.4802 90.0386 27.2989 90.3027 27.0668L90.778 26.6534L88.0769 23.7886C86.5829 22.2148 85.3229 20.8296 85.2776 20.7208C85.0437 20.2276 85.2927 19.6111 85.8209 19.3645C86.5754 19.0164 86.6207 19.0454 89.3218 21.932C91.3741 24.115 91.7589 24.4921 92.3399 24.8765C93.8715 25.8847 95.0033 27.3062 95.539 28.9017C95.9238 30.0404 95.9691 30.4828 95.9691 33.2606V35.828H88.356L88.3108 33.761L85.4889 28.9017C82.418 23.6073 82.1313 23.0924 82.0106 22.5339C81.9578 22.2801 81.9427 20.1043 81.9502 15.7962C81.9728 9.47194 81.9728 9.43568 82.1313 9.2326C82.4859 8.77569 83.1122 8.59437 83.6177 8.8047Z" fill="#509121"/>
<path d="M115.926 7.49197C115.104 7.76032 114.591 8.18822 114.236 8.91349L114.04 9.31964L113.994 17.9503L113.67 17.9285C113.187 17.8923 112.561 18.0373 112.169 18.2766C111.965 18.3999 110.901 19.4733 109.475 20.9891C108.185 22.3744 107.03 23.5493 106.91 23.6073C106.796 23.6653 106.449 23.9047 106.14 24.1368C104.39 25.4785 103.333 27.0451 102.699 29.2571C102.511 29.9099 102.511 29.9534 102.481 33.3259C102.45 36.7273 102.45 36.7418 102.609 36.9377L102.767 37.1335H112.425L112.606 36.9522C112.795 36.7781 112.795 36.7564 112.795 35.5089V34.2397L115.541 29.4602C118.506 24.3036 118.68 23.9845 118.906 23.4115C119.208 22.6065 119.216 22.3889 119.193 15.6657L119.17 9.17458L118.989 8.81195C118.74 8.32603 118.235 7.86186 117.722 7.63702C117.209 7.41219 116.394 7.34692 115.926 7.49197ZM117.201 8.86997C117.367 8.957 117.571 9.12381 117.654 9.2326C117.812 9.43568 117.812 9.47194 117.835 15.76C117.843 20.0463 117.827 22.2076 117.775 22.4614C117.654 23.0126 117.382 23.5058 114.281 28.9163L111.437 33.8553V35.828H103.816V33.2968C103.816 31.3604 103.846 30.6206 103.929 30.1274C104.329 27.9081 105.687 25.9499 107.657 24.7387C107.943 24.5574 108.766 23.7379 110.441 21.9537C113.172 19.0454 113.21 19.0164 113.964 19.3645C114.492 19.6111 114.741 20.2276 114.515 20.7208C114.462 20.8296 113.202 22.2148 111.708 23.7886L109.007 26.6534L109.482 27.0668C109.747 27.2989 110.003 27.4802 110.041 27.4802C110.086 27.4802 111.339 26.182 112.833 24.5937C115.73 21.5186 115.881 21.3155 115.949 20.5322C115.994 20.0173 115.858 19.4588 115.587 19.0454L115.36 18.7045V14.3022C115.36 11.4954 115.39 9.80556 115.436 9.6315C115.662 8.85547 116.507 8.48558 117.201 8.86997Z" fill="#509121"/>
<path d="M4.05001 53.7056C2.88025 53.7056 1.91281 53.3343 1.14769 52.5916C0.382562 51.849 0 50.9401 0 49.865C0 48.7899 0.382562 47.881 1.14769 47.1383C1.91281 46.3956 2.88025 46.0243 4.05001 46.0243C4.76363 46.0243 5.4184 46.1905 6.01432 46.523C6.61023 46.8483 7.07004 47.2904 7.39375 47.8492L6.70955 48.2311C6.46677 47.7784 6.10628 47.4177 5.62808 47.1489C5.14987 46.8801 4.62385 46.7458 4.05001 46.7458C3.08625 46.7458 2.29905 47.0464 1.68842 47.6476C1.0778 48.2488 0.772481 48.9879 0.772481 49.865C0.772481 50.742 1.0778 51.4812 1.68842 52.0824C2.29905 52.6836 3.08625 52.9842 4.05001 52.9842C4.62385 52.9842 5.14987 52.8498 5.62808 52.581C6.10628 52.3122 6.46677 51.9515 6.70955 51.4988L7.39375 51.8702C7.0774 52.429 6.61759 52.8746 6.01432 53.207C5.4184 53.5394 4.76363 53.7056 4.05001 53.7056Z" fill="white"/>
<path d="M13.2821 46.1516H14.0767L11.5054 51.9551C11.2479 52.5492 10.9205 52.9771 10.5232 53.2388C10.126 53.5005 9.63305 53.6137 9.04449 53.5783V52.8993C9.45648 52.9417 9.7949 52.8852 10.0598 52.7296C10.332 52.5669 10.5564 52.2875 10.7329 51.8914L10.8874 51.5413L8.22787 46.1516H9.02242L11.2516 50.7137L13.2821 46.1516Z" fill="white"/>
<path d="M19.7634 46.1516H20.5358V53.5783H19.7634V50.4485C19.0939 50.7668 18.395 50.9259 17.6666 50.9259C16.9309 50.9259 16.3424 50.7279 15.901 50.3318C15.4595 49.9357 15.2388 49.4264 15.2388 48.804V46.1516H16.0113V48.804C16.0113 49.2355 16.1548 49.5821 16.4417 49.8438C16.736 50.0984 17.1443 50.2257 17.6666 50.2257C18.395 50.2257 19.0939 50.0666 19.7634 49.7483V46.1516Z" fill="white"/>
<path d="M27.7751 53.5783L27.0578 51.7535H23.394L22.6767 53.5783H21.8601L24.8286 46.1516H25.6232L28.5917 53.5783H27.7751ZM23.6699 51.0532H26.7819L25.2259 47.0747L23.6699 51.0532Z" fill="white"/>
<path d="M33.2431 53.7056C32.0733 53.7056 31.1059 53.3343 30.3407 52.5916C29.5756 51.849 29.1931 50.9401 29.1931 49.865C29.1931 48.7899 29.5756 47.881 30.3407 47.1383C31.1059 46.3956 32.0733 46.0243 33.2431 46.0243C33.9567 46.0243 34.6115 46.1905 35.2074 46.523C35.8033 46.8483 36.2631 47.2904 36.5868 47.8492L35.9026 48.2311C35.6598 47.7784 35.2993 47.4177 34.8211 47.1489C34.3429 46.8801 33.8169 46.7458 33.2431 46.7458C32.2793 46.7458 31.4921 47.0464 30.8815 47.6476C30.2709 48.2488 29.9655 48.9879 29.9655 49.865C29.9655 50.742 30.2709 51.4812 30.8815 52.0824C31.4921 52.6836 32.2793 52.9842 33.2431 52.9842C33.8169 52.9842 34.3429 52.8498 34.8211 52.581C35.2993 52.3122 35.6598 51.9515 35.9026 51.4988L36.5868 51.8702C36.2705 52.429 35.8106 52.8746 35.2074 53.207C34.6115 53.5394 33.9567 53.7056 33.2431 53.7056Z" fill="white"/>
<path d="M43.1542 46.1516H43.9267V53.5783H43.1542V50.109H38.9607V53.5783H38.1882V46.1516H38.9607V49.4088H43.1542V46.1516Z" fill="white"/>
<path d="M46.02 46.1516H46.7924V53.5783H46.02V46.1516Z" fill="white"/>
<path d="M56.8399 46.1516V46.8519H54.4672V53.5783H53.6948V46.8519H51.3221V46.1516H56.8399Z" fill="white"/>
<path d="M59.0474 52.8781H62.7994V53.5783H58.2749V46.1516H62.7443V46.8519H59.0474V49.483H62.4684V50.1833H59.0474V52.8781Z" fill="white"/>
<path d="M69.7548 53.5783H68.8719L66.7752 50.4061L64.6785 53.5783H63.7956L66.3338 49.7483L63.9612 46.1516H64.833L66.7752 49.0799L68.7174 46.1516H69.5892L67.2166 49.7483L69.7548 53.5783Z" fill="white"/>
<path d="M76.1562 46.1516H76.9287V53.5783H76.1562V50.109H71.9627V53.5783H71.1903V46.1516H71.9627V49.4088H76.1562V46.1516Z" fill="white"/>
<path d="M85.4115 52.5916C84.639 53.3343 83.6936 53.7056 82.5754 53.7056C81.4571 53.7056 80.5117 53.3343 79.7393 52.5916C78.9668 51.8419 78.5805 50.933 78.5805 49.865C78.5805 48.7969 78.9668 47.8916 79.7393 47.1489C80.5117 46.3992 81.4571 46.0243 82.5754 46.0243C83.6936 46.0243 84.639 46.3992 85.4115 47.1489C86.184 47.8916 86.5702 48.7969 86.5702 49.865C86.5702 50.933 86.184 51.8419 85.4115 52.5916ZM80.28 52.0824C80.898 52.6836 81.6631 52.9842 82.5754 52.9842C83.4876 52.9842 84.2528 52.6836 84.8707 52.0824C85.4887 51.4741 85.7977 50.735 85.7977 49.865C85.7977 48.995 85.4887 48.2594 84.8707 47.6582C84.2528 47.0499 83.4876 46.7458 82.5754 46.7458C81.6631 46.7458 80.898 47.0499 80.28 47.6582C79.662 48.2594 79.353 48.995 79.353 49.865C79.353 50.735 79.662 51.4741 80.28 52.0824Z" fill="white"/>
<path d="M87.0632 53.5783V52.9205C87.6002 52.9913 88.0012 52.8321 88.266 52.4431C88.5383 52.047 88.6744 51.3256 88.6744 50.2787V46.1516H93.6844V53.5783H92.912V46.8519H89.4468V50.3C89.4468 50.9719 89.3917 51.5342 89.2813 51.9869C89.171 52.4396 89.0054 52.7861 88.7847 53.0266C88.5714 53.26 88.3249 53.4192 88.0453 53.5041C87.7731 53.5819 87.4457 53.6066 87.0632 53.5783Z" fill="white"/>
<path d="M102.174 52.5916C101.402 53.3343 100.456 53.7056 99.338 53.7056C98.2198 53.7056 97.2744 53.3343 96.5019 52.5916C95.7295 51.8419 95.3432 50.933 95.3432 49.865C95.3432 48.7969 95.7295 47.8916 96.5019 47.1489C97.2744 46.3992 98.2198 46.0243 99.338 46.0243C100.456 46.0243 101.402 46.3992 102.174 47.1489C102.947 47.8916 103.333 48.7969 103.333 49.865C103.333 50.933 102.947 51.8419 102.174 52.5916ZM97.0427 52.0824C97.6607 52.6836 98.4258 52.9842 99.338 52.9842C100.25 52.9842 101.015 52.6836 101.633 52.0824C102.251 51.4741 102.56 50.735 102.56 49.865C102.56 48.995 102.251 48.2594 101.633 47.6582C101.015 47.0499 100.25 46.7458 99.338 46.7458C98.4258 46.7458 97.6607 47.0499 97.0427 47.6582C96.4247 48.2594 96.1157 48.995 96.1157 49.865C96.1157 50.735 96.4247 51.4741 97.0427 52.0824Z" fill="white"/>
<path d="M109.289 46.1516V46.8519H105.757V53.5783H104.985V46.1516H109.289Z" fill="white"/>
<path d="M110.726 46.1516H111.499V53.5783H110.726V46.1516Z" fill="white"/>
<path d="M113.291 45.218C113.196 45.3099 113.078 45.3559 112.938 45.3559C112.799 45.3559 112.681 45.3099 112.585 45.218C112.49 45.126 112.442 45.0129 112.442 44.8785C112.442 44.7441 112.49 44.6309 112.585 44.539C112.681 44.447 112.799 44.401 112.938 44.401C113.078 44.401 113.196 44.447 113.291 44.539C113.387 44.6309 113.435 44.7441 113.435 44.8785C113.435 45.0129 113.387 45.126 113.291 45.218ZM115.388 45.218C115.293 45.3099 115.175 45.3559 115.035 45.3559C114.895 45.3559 114.778 45.3099 114.682 45.218C114.586 45.126 114.538 45.0129 114.538 44.8785C114.538 44.7441 114.586 44.6309 114.682 44.539C114.778 44.447 114.895 44.401 115.035 44.401C115.175 44.401 115.293 44.447 115.388 44.539C115.484 44.6309 115.532 44.7441 115.532 44.8785C115.532 45.0129 115.484 45.126 115.388 45.218ZM113.6 46.1516H114.373V53.5783H113.6V46.1516Z" fill="white"/>
<path d="M123.846 49.727C124.222 49.8827 124.52 50.1196 124.74 50.4379C124.968 50.7491 125.082 51.1063 125.082 51.5095C125.082 52.0824 124.873 52.5704 124.453 52.9736C124.034 53.3767 123.526 53.5783 122.931 53.5783H119.565V46.1516H122.677C123.251 46.1516 123.74 46.3497 124.144 46.7458C124.549 47.1348 124.751 47.6016 124.751 48.1462C124.751 48.8394 124.45 49.3663 123.846 49.727ZM122.677 46.8519H120.337V49.4406H122.677C123.037 49.4406 123.343 49.3168 123.593 49.0693C123.85 48.8146 123.979 48.5069 123.979 48.1462C123.979 47.7926 123.85 47.4884 123.593 47.2338C123.343 46.9792 123.037 46.8519 122.677 46.8519ZM122.931 52.8781C123.313 52.8781 123.637 52.7472 123.902 52.4855C124.174 52.2168 124.31 51.8914 124.31 51.5095C124.31 51.1346 124.174 50.8128 123.902 50.544C123.637 50.2752 123.313 50.1408 122.931 50.1408H120.337V52.8781H122.931Z" fill="white"/>
<path d="M131.705 53.5783V47.5309L127.401 53.5783H126.739V46.1516H127.512V52.1991L131.815 46.1516H132.477V53.5783H131.705Z" fill="white"/>
<path d="M140.089 52.8781H140.916V55H140.144V53.5783H134.626V55H133.853V52.8781H134.482C134.99 52.3052 135.244 51.421 135.244 50.2257V46.1516H140.089V52.8781ZM135.398 52.8781H139.316V46.8519H136.016V50.2469C136.016 51.421 135.81 52.2981 135.398 52.8781Z" fill="white"/>
<path d="M148.803 52.5916C148.03 53.3343 147.085 53.7056 145.967 53.7056C144.848 53.7056 143.903 53.3343 143.131 52.5916C142.358 51.8419 141.972 50.933 141.972 49.865C141.972 48.7969 142.358 47.8916 143.131 47.1489C143.903 46.3992 144.848 46.0243 145.967 46.0243C147.085 46.0243 148.03 46.3992 148.803 47.1489C149.575 47.8916 149.962 48.7969 149.962 49.865C149.962 50.933 149.575 51.8419 148.803 52.5916ZM143.671 52.0824C144.289 52.6836 145.054 52.9842 145.967 52.9842C146.879 52.9842 147.644 52.6836 148.262 52.0824C148.88 51.4741 149.189 50.735 149.189 49.865C149.189 48.995 148.88 48.2594 148.262 47.6582C147.644 47.0499 146.879 46.7458 145.967 46.7458C145.054 46.7458 144.289 47.0499 143.671 47.6582C143.053 48.2594 142.744 48.995 142.744 49.865C142.744 50.735 143.053 51.4741 143.671 52.0824Z" fill="white"/>
<path d="M154.483 49.1223C155.123 49.1223 155.667 49.3416 156.116 49.7801C156.572 50.2186 156.8 50.742 156.8 51.3503C156.8 51.9657 156.572 52.4926 156.116 52.9311C155.667 53.3626 155.123 53.5783 154.483 53.5783H151.614V46.1516H156.138V46.8519H152.386V49.1223H154.483ZM154.483 52.8781C154.91 52.8781 155.274 52.7296 155.575 52.4325C155.877 52.1354 156.028 51.7747 156.028 51.3503C156.028 50.933 155.877 50.5758 155.575 50.2787C155.274 49.9746 154.91 49.8225 154.483 49.8225H152.386V52.8781H154.483Z" fill="white"/>
<path d="M162.568 46.1516H163.363L160.792 51.9551C160.534 52.5492 160.207 52.9771 159.81 53.2388C159.412 53.5005 158.919 53.6137 158.331 53.5783V52.8993C158.743 52.9417 159.081 52.8852 159.346 52.7296C159.618 52.5669 159.843 52.2875 160.019 51.8914L160.174 51.5413L157.514 46.1516H158.309L160.538 50.7137L162.568 46.1516Z" fill="white"/>
<path d="M168.972 49.727C169.348 49.8827 169.646 50.1196 169.866 50.4379C170.094 50.7491 170.208 51.1063 170.208 51.5095C170.208 52.0824 169.999 52.5704 169.579 52.9736C169.16 53.3767 168.652 53.5783 168.056 53.5783H164.691V46.1516H167.803C168.376 46.1516 168.866 46.3497 169.27 46.7458C169.675 47.1348 169.877 47.6016 169.877 48.1462C169.877 48.8394 169.576 49.3663 168.972 49.727ZM167.803 46.8519H165.463V49.4406H167.803C168.163 49.4406 168.468 49.3168 168.719 49.0693C168.976 48.8146 169.105 48.5069 169.105 48.1462C169.105 47.7926 168.976 47.4884 168.719 47.2338C168.468 46.9792 168.163 46.8519 167.803 46.8519ZM168.056 52.8781C168.439 52.8781 168.763 52.7472 169.028 52.4855C169.3 52.2168 169.436 51.8914 169.436 51.5095C169.436 51.1346 169.3 50.8128 169.028 50.544C168.763 50.2752 168.439 50.1408 168.056 50.1408H165.463V52.8781H168.056Z" fill="white"/>
<path d="M177.007 53.5783L176.29 51.7535H172.626L171.909 53.5783H171.092L174.061 46.1516H174.856L177.824 53.5783H177.007ZM172.902 51.0532H176.014L174.458 47.0747L172.902 51.0532Z" fill="white"/>
<path d="M184.113 46.1516H184.885V53.5783H184.113V50.109H179.92V53.5783H179.147V46.1516H179.92V49.4088H184.113V46.1516Z" fill="white"/>
<path d="M191.945 46.1516H192.717V53.5783H191.945V50.109H187.751V53.5783H186.979V46.1516H187.751V49.4088H191.945V46.1516Z" fill="white"/>
<path d="M199.887 46.1516V53.5783H199.114V50.6076H197.26L195.142 53.5783H194.259L196.411 50.5758C195.859 50.4839 195.399 50.2328 195.031 49.8225C194.663 49.4052 194.479 48.9243 194.479 48.3796C194.479 47.7643 194.704 47.2409 195.153 46.8094C195.609 46.3709 196.157 46.1516 196.797 46.1516H199.887ZM196.797 49.9074H199.114V46.8519H196.797C196.37 46.8519 196.006 47.0004 195.704 47.2975C195.403 47.5945 195.252 47.9552 195.252 48.3796C195.252 48.7969 195.403 49.1577 195.704 49.4618C196.006 49.7589 196.37 49.9074 196.797 49.9074Z" fill="white"/>
</svg>
