<svg width="31" height="31" viewBox="0 0 31 31" fill="none" xmlns="http://www.w3.org/2000/svg">
<path d="M25.8346 12.9166C25.8346 20.6666 15.5013 28.4166 15.5013 28.4166C15.5013 28.4166 5.16797 20.6666 5.16797 12.9166C5.16797 10.176 6.25666 7.54769 8.19453 5.60982C10.1324 3.67194 12.7607 2.58325 15.5013 2.58325C18.2419 2.58325 20.8702 3.67194 22.8081 5.60982C24.7459 7.54769 25.8346 10.176 25.8346 12.9166V12.9166Z" fill="white" stroke="white" stroke-width="2" stroke-linecap="round" stroke-linejoin="round"/>
<path d="M18.875 12.9167C18.875 14.7807 17.364 16.2917 15.5 16.2917C13.636 16.2917 12.125 14.7807 12.125 12.9167C12.125 11.0528 13.636 9.54175 15.5 9.54175C17.364 9.54175 18.875 11.0528 18.875 12.9167Z" fill="#424F44" stroke="#424F44"/>
</svg>
