<svg width="22" height="31" viewBox="0 0 22 31" fill="none" xmlns="http://www.w3.org/2000/svg">
<path d="M18.3337 12.9166C18.3337 20.6666 11.0003 28.4166 11.0003 28.4166C11.0003 28.4166 3.66699 20.6666 3.66699 12.9166C3.66699 10.176 4.43961 7.54769 5.81488 5.60982C7.19014 3.67194 9.0554 2.58325 11.0003 2.58325C12.9452 2.58325 14.8105 3.67194 16.1858 5.60982C17.561 7.54769 18.3337 10.176 18.3337 12.9166Z" fill="#1A1D27" stroke="#1A1D27" stroke-width="2" stroke-linecap="round" stroke-linejoin="round"/>
<path d="M13.25 12.9167C13.25 13.8952 12.9677 14.7601 12.5368 15.3673C12.105 15.9757 11.5546 16.2917 11 16.2917C10.4454 16.2917 9.89497 15.9757 9.46321 15.3673C9.03226 14.7601 8.75 13.8952 8.75 12.9167C8.75 11.9381 9.03226 11.0732 9.46321 10.466C9.89497 9.8576 10.4454 9.54166 11 9.54166C11.5546 9.54166 12.105 9.8576 12.5368 10.466C12.9677 11.0732 13.25 11.9381 13.25 12.9167Z" fill="white" stroke="#424F44"/>
</svg>
