<svg width="130" height="130" viewBox="0 0 130 130" fill="none" xmlns="http://www.w3.org/2000/svg">
<path fill-rule="evenodd" clip-rule="evenodd" d="M18.7898 0.139346C12.5346 1.18701 7.87142 6.64534 7.87142 12.9199C7.87142 20.0089 13.5607 25.671 20.7044 25.6921C24.1927 25.7025 27.1473 24.4384 29.7106 21.8393C33.837 17.6552 34.6673 11.5595 31.7947 6.5389C29.2614 2.11096 23.613 -0.668505 18.7898 0.139346ZM107.788 0.112418C105.586 0.640823 104.836 0.884703 103.725 1.43216C101.925 2.31953 99.9927 4.04066 98.814 5.8065C95.3757 10.9582 96.0347 17.5358 100.43 21.9328C106.175 27.6812 115.569 26.7657 120.072 20.0181C124.884 12.8084 121.379 3.14415 113.018 0.573503C111.767 0.188884 108.624 -0.0882745 107.788 0.112418ZM62.5273 12.9318C57.2303 13.8771 52.8221 17.7515 50.9786 23.0815C50.2182 25.2803 50.1691 29.6155 50.8806 31.7189C51.7053 34.157 52.8919 36.1116 54.5921 37.8324C57.549 40.8256 60.7428 42.188 64.8758 42.2187C69.2236 42.2512 72.3275 40.9655 75.4351 37.8449C78.4484 34.8193 79.7238 31.7504 79.7238 27.5273C79.7238 23.3041 78.4484 20.2353 75.4351 17.2096C72.6124 14.3751 69.6951 13.0441 65.7916 12.8099C64.7292 12.7461 63.2603 12.801 62.5273 12.9318ZM4.23508 30.8407C2.73672 31.3907 1.37445 32.6157 0.654852 34.0607L0 35.3754V50.3478C0 61.1801 0.0835386 65.5991 0.301907 66.3285C0.692177 67.632 2.52419 69.6638 3.74324 70.1452C4.26809 70.3522 5.35434 70.602 6.15748 70.6998L7.61751 70.8779L7.62005 84.1332L7.62258 97.3886L8.21497 98.6588C8.91401 100.158 10.4586 101.634 11.8373 102.121C13.2636 102.625 28.1317 102.623 29.56 102.118C31.0713 101.585 32.6517 99.9816 33.2537 98.3715C33.9593 96.4847 33.9025 95.1926 33.0135 92.9063C31.7823 89.7394 31.6929 87.9583 31.8031 68.809C31.914 49.5016 31.8336 50.4527 33.6732 46.7264C34.8432 44.3565 37.7788 41.3115 39.9508 40.2154L41.4334 39.4672L41.3295 37.3078C41.1736 34.0734 40.0587 32.2735 37.4527 31.0498L36.1832 30.4538L20.6942 30.4691C8.06846 30.4818 5.02603 30.5504 4.23508 30.8407ZM92.2807 31.0495C89.8868 32.1722 88.617 34.443 88.617 37.602V39.3298L89.6961 39.879C93.5044 41.8173 96.3901 45.4829 97.6714 50.0099C98.1064 51.5461 98.1389 52.971 98.1389 70.4602C98.1389 87.8981 98.1053 89.3776 97.675 90.8953C97.42 91.7951 96.9777 92.9893 96.692 93.5493C95.6845 95.5252 96.4257 98.7025 98.307 100.472C100.186 102.239 100.034 102.215 109.311 102.215C117.472 102.215 117.718 102.201 118.74 101.654C120.076 100.939 121.166 99.8485 121.779 98.6131C122.231 97.7026 122.265 96.8089 122.331 84.1492L122.401 70.6556L123.791 70.4922C124.556 70.4023 125.64 70.1455 126.199 69.9214C127.476 69.4105 129.306 67.4008 129.704 66.0744C129.922 65.3446 130.004 60.9725 130 50.2345C129.995 35.8545 129.979 35.3677 129.476 34.2594C128.858 32.8962 128.198 32.1429 126.831 31.2439L125.816 30.5758L109.692 30.5107L93.5684 30.4459L92.2807 31.0495ZM45.8873 47.8346C43.8207 48.5723 42.3759 50.0104 41.6855 52.0166C41.4697 52.6443 41.3892 57.7452 41.391 70.6886L41.3935 88.4971L41.9945 89.7673C43.1874 92.2874 45.0276 93.4177 48.3031 93.6422L50.2755 93.7776V109.442V125.106L50.9441 126.448C51.7724 128.112 53.4409 129.397 55.2731 129.784C56.1306 129.965 59.8449 130.035 65.9376 129.984C75.0223 129.908 75.3161 129.89 76.336 129.344C77.579 128.679 78.813 127.495 79.4199 126.386C79.818 125.658 79.8632 124.157 79.9277 109.519L79.9983 93.4509L81.959 93.4454C84.9502 93.437 87.0257 92.2158 88.2521 89.7427C88.7249 88.7895 88.7439 88.0414 88.7439 70.4602V52.1693L88.1909 51.1358C87.887 50.5673 87.1796 49.6878 86.6192 49.1812C84.6942 47.4416 85.0362 47.4682 64.893 47.4807C50.4137 47.4896 46.658 47.5594 45.8873 47.8346Z" fill="#509121"/>
</svg>
