<svg width="47" height="47" viewBox="0 0 47 47" fill="none" xmlns="http://www.w3.org/2000/svg">
<g clip-path="url(#clip0_178_2501)">
<path d="M46.9838 9.01524C46.9838 16.1558 43.8708 21.3435 43.7399 21.5599C43.4763 21.9908 43.0199 22.2272 42.5489 22.2272C42.3016 22.2272 42.0525 22.1617 41.827 22.0253C41.1688 21.6253 40.9579 20.7689 41.3561 20.1106C41.3852 20.0634 44.1945 15.3412 44.1945 9.01524C44.1945 5.40769 41.8489 2.78931 38.6159 2.78931C35.5393 2.78931 33.0373 5.29132 33.0373 8.36974C33.0373 9.68075 33.6719 13.0119 33.9155 14.1847C34.0737 14.9393 33.5882 15.6776 32.8336 15.8358C32.079 15.9903 31.3408 15.5085 31.1844 14.7557C31.088 14.2957 30.2443 10.2062 30.2443 8.36974C30.2443 3.75484 33.9992 0 38.6159 0C43.3853 0 46.9838 3.87485 46.9838 9.01524ZM38.8523 11.21C39.4069 15.8449 40.2106 24.8765 39.2868 25.7965L19.0198 46.0654C17.7743 47.3128 15.7505 47.3128 14.5031 46.0636L0.951152 32.5134C-0.296217 31.2679 -0.296217 29.2441 0.951152 27.9967L21.22 7.72969C21.5418 7.40785 25.0476 7.3933 28.9897 7.59877C28.9679 7.85879 28.9115 8.10426 28.9115 8.36974C28.9115 9.38073 29.1352 10.9481 29.3697 12.3264C28.957 12.9392 28.7151 13.6756 28.7151 14.4702C28.7151 16.5867 30.4316 18.3032 32.5481 18.3032C34.6647 18.3032 36.3812 16.5867 36.3812 14.4702C36.3812 13.1665 35.7284 12.0173 34.7338 11.3263C34.5301 10.1135 34.3665 8.94251 34.3665 8.36974C34.3665 8.24609 34.3919 8.13154 34.4028 8.00971C34.8883 8.06062 35.3665 8.11336 35.8193 8.16972C38.4977 8.49884 38.525 8.49338 38.8523 11.21ZM28.0496 26.3784C27.735 25.5038 27.2114 24.4546 26.0749 23.2473L27.6132 21.7071L25.9004 19.9961L24.2402 21.658C22.0182 20.1361 19.7271 20.2597 18.1725 21.8144C16.4778 23.5091 16.8778 25.6602 18.1216 28.1604C18.9762 29.8914 19.1326 30.8878 18.4689 31.5515C17.787 32.2334 16.6869 31.937 15.6887 30.9406C14.554 29.8059 13.8885 28.404 13.5576 27.2676L10.9865 28.7913C11.2847 29.8205 12.0884 31.2879 13.223 32.4952L11.5465 34.1736L13.2576 35.8864L15.0595 34.0863C17.4361 35.7628 19.8326 35.5373 21.3873 33.9826C22.9783 32.388 23.1183 30.606 21.7546 27.7749C20.809 25.7456 20.5818 24.7492 21.1418 24.191C21.6328 23.7 22.5055 23.56 23.642 24.6965C24.9021 25.9566 25.3203 27.1803 25.5476 27.8276L28.0496 26.3784Z" fill="#509121"/>
</g>
<defs>
<clipPath id="clip0_178_2501">
<rect width="47" height="47" fill="white"/>
</clipPath>
</defs>
</svg>
