<svg width="90" height="130" viewBox="0 0 90 130" fill="none" xmlns="http://www.w3.org/2000/svg">
<path d="M38.1993 0.352396C24.5661 2.53622 13.4774 9.57015 6.37962 20.54C0.219249 30.0625 -1.60208 42.2259 1.45132 53.5767C2.20128 56.4207 3.11195 58.6299 4.77257 61.8041C10.9597 73.5865 22.5841 81.9155 36.4851 84.5818C39.0564 85.0643 40.342 85.1659 45.0025 85.1659C49.6629 85.1659 50.9486 85.0643 53.5467 84.5818C67.3941 81.9409 78.9917 73.6627 85.1253 62.058C88.5269 55.5573 90 49.7677 90 42.6322C90 31.0528 85.4199 20.5146 76.8757 12.3888C70.0457 5.91352 61.6087 1.87599 51.6985 0.352396C48.5648 -0.104683 41.1991 -0.130076 38.1993 0.352396ZM46.4221 16.5787C47.8416 17.1373 48.538 18.1785 50.6004 22.9778C52.7431 27.9295 53.4663 29.0468 54.7787 29.58C55.2341 29.7578 58.3143 30.1641 61.6087 30.4434C65.0371 30.7481 68.0369 31.1544 68.6262 31.383C69.8315 31.84 70.9832 33.4652 70.9832 34.7349C70.9832 36.3092 70.2065 37.198 65.3853 41.2355C62.7604 43.394 60.4838 45.4508 60.3231 45.7809C59.6267 47.2537 59.707 48.0663 61.073 53.2466C61.7962 56.0906 62.4122 58.8331 62.4122 59.3409C62.4122 61.2962 60.5909 62.9468 58.3946 62.9468C57.3232 62.9468 56.5465 62.5913 52.1271 60.1535C46.3685 56.9794 45.4846 56.6239 43.9579 57.0555C43.3954 57.2333 40.6634 58.6299 37.8779 60.1535C33.4585 62.5913 32.6817 62.9468 31.6104 62.9468C30.2444 62.9468 28.9319 62.3119 28.2623 61.3216C27.4052 60.0773 27.4856 58.9854 28.9052 53.3989C29.6551 50.4533 30.2712 47.8632 30.2712 47.6346C30.2712 46.1872 29.3605 45.1461 24.6465 41.2355C21.8073 38.874 19.6914 36.9187 19.4503 36.4108C18.8343 35.2173 18.9146 34.0746 19.6914 32.8304C20.6288 31.3068 21.6199 31.0528 28.3963 30.4434C31.5568 30.1641 34.5299 29.8086 34.9852 29.6816C36.4583 29.2245 37.1547 28.1834 39.351 23.1301C40.5027 20.4131 41.7616 17.9245 42.1098 17.569C43.3151 16.3248 44.8686 15.9439 46.4221 16.5787Z" fill="#509121"/>
<path d="M69.3759 87.4511C57.4301 93.19 43.2077 94.5104 30.4048 91.0315C26.7354 90.0412 25.1551 89.4825 22.5838 88.2637C21.566 87.7812 20.4947 87.2987 20.1733 87.2225L19.5572 87.0448V106.877C19.5572 128.969 19.4501 127.776 21.3786 129.172C22.1285 129.705 22.6642 129.858 24.0838 129.934C25.5837 130.01 25.9854 129.934 26.789 129.426C27.2979 129.096 31.0209 125.414 35.0921 121.25C39.1365 117.085 42.8059 113.505 43.2077 113.301C44.1987 112.819 46.0736 112.819 47.0378 113.301C47.9753 113.784 49.7163 115.46 57.1623 123.179C60.3496 126.506 63.3494 129.401 63.8048 129.629C65.144 130.289 67.7153 130.036 68.9741 129.121C70.7955 127.801 70.7151 128.842 70.6615 106.775L70.5812 86.867L69.3759 87.4511Z" fill="#509121"/>
</svg>
